<svg xmlns="http://www.w3.org/2000/svg" width="457.651" height="440.702" viewBox="0 0 457.651 440.702"><defs><style>.a,.d{fill:#f5f5f5;}.b,.c{fill:#e0e0e0;}.c,.d,.e{fill-rule:evenodd;}.e,.f{fill:#ebebeb;}.g{fill:#fafafa;}.h,.l{fill:#fff;}.i{fill:#e0034e;}.j{fill:#263238;}.k,.n{fill:#455a64;}.l{stroke:#707070;}.m{fill:#c5cccf;}.n{opacity:0.308;}</style></defs><g transform="translate(-24.918 -26.512)"><path class="a" d="M292.29,459.706c-1.227-1.053-3.965-4.388-1.854-8.267.775-1.422,2.418-2.126,3.907-2.752a15.883,15.883,0,0,0,4.283-2.219c2.322-1.976,2.963-5.258,4.5-7.894,1.77-3.025,5.073-5.292,8.563-5.133,4,.181,7.329,3.445,8.84,7.167s1.563,7.853,1.6,11.872c.017,2.222-.082,4.728-1.713,6.228-1.505,1.384-3.769,1.4-5.808,1.339l-21.839-.671"/><path class="b" d="M334.06,399.652H276.627l10.345,61.689a6.89,6.89,0,0,0,4.9,5.492c.066.021.134.036.2.055.171.044.336.1.512.132a7.113,7.113,0,0,0,1.168.135l.009.059.28-.045h25.6a7.162,7.162,0,0,0,1.406-.14A6.915,6.915,0,0,0,326.862,461l4.987-42.505.225-1.69h-.027l1.975-16.834ZM323.225,439h-5.894l.6-17.9h6.829Zm2.1-17.9h5.643l-2.1,17.9H323.8Zm-16.839,37.751L308.13,443.3h8.488l-.517,15.553ZM299.312,443.3h8.248l.358,15.553h-7.4Zm.638,15.553h-6.915c-.657-4.2-1.512-9.657-2.438-15.553h8.144ZM298.979,439l-1.392-17.9h9.462l.412,17.9Zm9.052,0-.412-17.9h9.736l-.594,17.9Zm-.511-22.2-.382-16.581h10.911L317.5,416.8Zm-.57,0h-9.7l-1.289-16.581h10.6Zm-10.268,0H286.424c-.364-2.29-.708-4.458-1.019-6.408-1.07-6.7-1.473-9.224-1.7-10.173h11.685Zm.334,4.293,1.391,17.9h-8.484c-.285-1.817-.574-3.654-.863-5.493-.665-4.227-1.331-8.452-1.957-12.411Zm-7.67,17.9H283.8l-3-17.9h5.725C287.4,426.631,288.37,432.789,289.346,439Zm.675,4.294c.845,5.382,1.676,10.689,2.437,15.553h-5.325L284.524,443.3Zm26.651,15.553.517-15.553h5.67l-1.329,15.553Zm1.4-42.044.55-16.581h7.919L325.122,416.8Zm-34.9-16.581c.227,1.2,1.276,7.723,2.68,16.581h-5.765L277.3,400.224Zm43.375,58.625H322.1l1.329-15.553h4.934Zm4.933-42.044h-5.78l1.417-16.581h6.308Z"/><path class="c" d="M217.878,125.95a33.5,33.5,0,0,1-.378,8.909l6.545,5.052-5.762,12.406-8.082-1.739a33.534,33.534,0,0,1-6.563,6.038l1.054,8.2-12.846,4.7-4.484-6.941a33.467,33.467,0,0,1-8.91-.379l-5.053,6.544-12.4-5.76,1.738-8.083a33.5,33.5,0,0,1-6.036-6.564l-8.2,1.055-4.7-12.847,6.942-4.483a33.469,33.469,0,0,1,.379-8.91l-6.545-5.053,5.761-12.406,8.083,1.74a33.624,33.624,0,0,1,6.563-6.038l-1.054-8.2,12.847-4.7,4.483,6.942a33.469,33.469,0,0,1,8.91.378l5.053-6.544,12.405,5.76-1.739,8.084a33.508,33.508,0,0,1,6.038,6.563l8.2-1.055,4.7,12.846-6.942,4.485ZM198.3,124.544a14.674,14.674,0,1,0-8.74,18.821A14.675,14.675,0,0,0,198.3,124.544Z"/><path class="d" d="M212.9,51.272a22.177,22.177,0,0,1-.25,5.888l4.326,3.339-3.808,8.2-5.343-1.15a22.115,22.115,0,0,1-4.338,3.991l.7,5.418-8.491,3.105-2.964-4.588a22.1,22.1,0,0,1-5.889-.25l-3.34,4.326-8.2-3.808,1.149-5.343a22.111,22.111,0,0,1-3.99-4.338l-5.418.7-3.107-8.492,4.589-2.964a22.142,22.142,0,0,1,.25-5.889l-4.326-3.34,3.808-8.2,5.343,1.15a22.233,22.233,0,0,1,4.338-3.991l-.7-5.417,8.492-3.106,2.963,4.588a22.141,22.141,0,0,1,5.889.25l3.34-4.325,8.2,3.807-1.15,5.343a22.174,22.174,0,0,1,3.991,4.338l5.417-.7,3.106,8.491L212.9,51.272Zm-12.938-.93a9.7,9.7,0,1,0-5.777,12.441A9.7,9.7,0,0,0,199.961,50.342Z"/><path class="d" d="M271.349,149.826a17.5,17.5,0,0,1-.2,4.642l3.41,2.633-3,6.465-4.212-.906a17.5,17.5,0,0,1-3.42,3.146l.549,4.272-6.694,2.448-2.337-3.617a17.422,17.422,0,0,1-4.642-.2l-2.634,3.411-6.464-3,.906-4.212a17.5,17.5,0,0,1-3.146-3.421l-4.271.55-2.449-6.694,3.618-2.337a17.42,17.42,0,0,1,.2-4.642l-3.411-2.634,3-6.465,4.213.907a17.492,17.492,0,0,1,3.419-3.146l-.549-4.271,6.695-2.449,2.336,3.618a17.427,17.427,0,0,1,4.643.2l2.633-3.411,6.464,3-.906,4.212a17.443,17.443,0,0,1,3.146,3.421l4.271-.55,2.449,6.694-3.617,2.337Zm-10.2-.733a7.646,7.646,0,1,0-4.554,9.808A7.646,7.646,0,0,0,261.148,149.093Z"/><path class="e" d="M265.007,95.907a20.017,20.017,0,0,1-.225,5.319l3.907,3.016-3.44,7.408-4.826-1.039a20,20,0,0,1-3.918,3.606l.63,4.894-7.671,2.805-2.677-4.145a19.981,19.981,0,0,1-5.32-.226l-3.017,3.907-7.406-3.439,1.037-4.826a20.031,20.031,0,0,1-3.6-3.919l-4.894.63-2.806-7.671,4.145-2.677a19.973,19.973,0,0,1,.226-5.319l-3.908-3.018,3.44-7.407,4.826,1.039a20.064,20.064,0,0,1,3.919-3.605l-.629-4.893,7.67-2.806,2.677,4.145a19.939,19.939,0,0,1,5.32.226L251.48,74l7.406,3.439-1.038,4.827a20,20,0,0,1,3.605,3.919l4.893-.63,2.806,7.67-4.145,2.678Zm-11.687-.84a8.761,8.761,0,1,0-5.218,11.238A8.761,8.761,0,0,0,253.32,95.067Z"/><path class="e" d="M83.459,225.055a20.013,20.013,0,0,1-.226,5.319l3.907,3.017L83.7,240.8l-4.825-1.038a20.036,20.036,0,0,1-3.919,3.605l.63,4.894-7.671,2.8-2.677-4.145a19.939,19.939,0,0,1-5.32-.226L56.9,250.6l-7.406-3.439,1.038-4.827a20.036,20.036,0,0,1-3.6-3.919l-4.894.63-2.806-7.67,4.145-2.677a19.979,19.979,0,0,1,.226-5.32l-3.908-3.017,3.44-7.407,4.827,1.038a20.054,20.054,0,0,1,3.918-3.6l-.629-4.894,7.67-2.806,2.677,4.145a19.979,19.979,0,0,1,5.32.226l3.017-3.908,7.407,3.44L76.3,211.418a20,20,0,0,1,3.6,3.919l4.894-.63,2.805,7.67-4.144,2.678Zm-11.688-.84a8.761,8.761,0,1,0-5.218,11.238A8.761,8.761,0,0,0,71.771,224.215Z"/><path class="f" d="M418.4,84.874l7.7,24.354h-5.574l-2.458-8.4Z"/><rect class="f" width="114.971" height="6.873" transform="translate(318.984 109.206)"/><rect class="f" width="5.562" height="10.549" transform="translate(335.007 114.573)"/><rect class="f" width="5.562" height="10.549" transform="translate(406.792 114.573)"/><path class="f" d="M322.889,77.348s-5.159,3.931-.216,9.124a.451.451,0,0,0,.327.139l45.081-.263s3.849-4.318.655-9.294Z"/><path class="b" d="M358.117,81.451c0,.05-5.613.091-12.536.091s-12.538-.041-12.538-.091,5.612-.091,12.538-.091S358.117,81.4,358.117,81.451Z"/><path class="b" d="M351.105,83.082c0,.05-2.639.091-5.894.091s-5.894-.041-5.894-.091,2.638-.091,5.894-.091S351.105,83.031,351.105,83.082Z"/><path class="b" d="M362.727,86.2c-.03-.007.1-.517.238-1.352a18.642,18.642,0,0,0-.062-6.573c-.155-.832-.293-1.34-.264-1.348a1.447,1.447,0,0,1,.131.347c.075.226.165.559.26.975a15.971,15.971,0,0,1,.062,6.622c-.086.418-.17.753-.241.98A1.471,1.471,0,0,1,362.727,86.2Z"/><path class="b" d="M366.091,77a1.56,1.56,0,0,1,.2.328,3.778,3.778,0,0,1,.2.4c.071.161.159.342.23.552a9.463,9.463,0,0,1,.429,1.5,10.021,10.021,0,0,1,.031,3.8,9.572,9.572,0,0,1-.4,1.5c-.067.211-.153.393-.221.555a3.781,3.781,0,0,1-.194.407,1.548,1.548,0,0,1-.2.33c-.032-.015.22-.5.488-1.334a10.838,10.838,0,0,0,.362-1.49,10.727,10.727,0,0,0-.03-3.737,10.937,10.937,0,0,0-.386-1.484C366.319,77.5,366.06,77.014,366.091,77Z"/><path class="b" d="M330,86.264a1.516,1.516,0,0,1-.21-.3,3.256,3.256,0,0,1-.21-.376,5.129,5.129,0,0,1-.241-.518,7.959,7.959,0,0,1-.44-1.422,8.384,8.384,0,0,1,.049-3.627,7.863,7.863,0,0,1,.478-1.41,5.317,5.317,0,0,1,.254-.512,3.159,3.159,0,0,1,.221-.37,1.393,1.393,0,0,1,.218-.3c.031.019-.259.455-.575,1.228a8.751,8.751,0,0,0-.432,1.4,8.828,8.828,0,0,0-.048,3.557,8.706,8.706,0,0,0,.395,1.408C329.755,85.8,330.034,86.245,330,86.264Z"/><path class="b" d="M325.135,87.363a1.724,1.724,0,0,1-.232-.342,3.727,3.727,0,0,1-.235-.423c-.084-.17-.188-.359-.273-.581a9.561,9.561,0,0,1-.516-1.592,10.072,10.072,0,0,1-.091-4.077,9.525,9.525,0,0,1,.446-1.613c.074-.226.171-.42.246-.593a3.849,3.849,0,0,1,.217-.433,1.794,1.794,0,0,1,.216-.352c.033.017-.256.53-.558,1.421a10.475,10.475,0,0,0-.4,1.6,10.605,10.605,0,0,0,.089,4.012,10.529,10.529,0,0,0,.471,1.579C324.856,86.845,325.167,87.345,325.135,87.363Z"/><path class="f" d="M366.427,100.077V108.7H349.734v-8.627Z"/><path class="b" d="M312.515,104.471c0,.076.006.152.01.228a4.943,4.943,0,0,0,4.965,4.629H367.2V108.7H355.4a4.313,4.313,0,0,1-4.313-4.313h0a4.313,4.313,0,0,1,4.313-4.314h11.8v-.916l-49.729.168A4.972,4.972,0,0,0,312.515,104.471Z"/><path class="b" d="M366.427,104.506c0,.05-3.432.091-7.665.091s-7.666-.041-7.666-.091,3.431-.091,7.666-.091S366.427,104.456,366.427,104.506Z"/><path class="b" d="M366.185,106.45c0,.05-3.247.091-7.253.091s-7.253-.041-7.253-.091,3.247-.091,7.253-.091S366.185,106.4,366.185,106.45Z"/><path class="b" d="M366.427,108.227c0,.051-2.92.091-6.521.091s-6.522-.04-6.522-.091,2.919-.091,6.522-.091S366.427,108.177,366.427,108.227Z"/><path class="b" d="M366.427,102.759c0,.051-3.362.091-7.508.091s-7.509-.04-7.509-.091,3.361-.091,7.509-.091S366.427,102.709,366.427,102.759Z"/><path class="b" d="M366.185,101.013c0,.05-2.992.091-6.683.091s-6.684-.041-6.684-.091,2.992-.091,6.684-.091S366.185,100.962,366.185,101.013Z"/><path class="a" d="M318.538,99.473a11.051,11.051,0,0,0-1.056,1.256,6.387,6.387,0,0,0,.087,7.393,11.308,11.308,0,0,0,1.085,1.231,1.747,1.747,0,0,1-.358-.265,5.725,5.725,0,0,1-.831-.89,6.292,6.292,0,0,1-.089-7.542,5.716,5.716,0,0,1,.809-.91A1.748,1.748,0,0,1,318.538,99.473Z"/><path class="a" d="M316.857,99.289a10.924,10.924,0,0,0-1.056,1.256,6.387,6.387,0,0,0,.087,7.393,11.177,11.177,0,0,0,1.085,1.231,1.8,1.8,0,0,1-.358-.265,5.677,5.677,0,0,1-.831-.89,6.293,6.293,0,0,1-.089-7.543,5.746,5.746,0,0,1,.809-.909A1.7,1.7,0,0,1,316.857,99.289Z"/><path class="a" d="M350.637,99.473a11.051,11.051,0,0,0-1.056,1.256,6.391,6.391,0,0,0,.087,7.393,11.108,11.108,0,0,0,1.086,1.231,1.7,1.7,0,0,1-.359-.265,5.725,5.725,0,0,1-.831-.89,6.292,6.292,0,0,1-.089-7.542,5.663,5.663,0,0,1,.81-.91A1.8,1.8,0,0,1,350.637,99.473Z"/><path class="a" d="M348.956,99.289a11.051,11.051,0,0,0-1.056,1.256,6.387,6.387,0,0,0,.087,7.393,11.108,11.108,0,0,0,1.086,1.231,1.75,1.75,0,0,1-.359-.265,5.725,5.725,0,0,1-.831-.89,6.293,6.293,0,0,1-.089-7.543,5.693,5.693,0,0,1,.81-.909A1.747,1.747,0,0,1,348.956,99.289Z"/><path class="a" d="M324.2,105.683q-.024-1.753-.048-3.507a2.5,2.5,0,0,0-.123-.9.85.85,0,0,0-.666-.562,1.335,1.335,0,0,0-1.431.678,3.332,3.332,0,0,0-.345,1.719,25.144,25.144,0,0,0,.135,2.771,3.182,3.182,0,0,0,.326,1.268,1.184,1.184,0,0,0,1.07.644,1.2,1.2,0,0,0,.938-.814A3.554,3.554,0,0,0,324.2,105.683Z"/><path class="a" d="M343.5,104.674c0,.051-3.594.091-8.027.091s-8.027-.04-8.027-.091,3.593-.091,8.027-.091S343.5,104.624,343.5,104.674Z"/><path class="a" d="M320.865,99.128l-.092-8.177h4.451l.153,8.177Z"/><path class="b" d="M324.962,92.406a23.554,23.554,0,0,1-4.137,0,23.556,23.556,0,0,1,4.137,0Z"/><path class="b" d="M324.962,93.668a23.554,23.554,0,0,1-4.137,0,23.556,23.556,0,0,1,4.137,0Z"/><path class="b" d="M324.962,94.93a23.554,23.554,0,0,1-4.137,0,23.554,23.554,0,0,1,4.137,0Z"/><path class="b" d="M324.962,96.192a23.556,23.556,0,0,1-4.137,0,23.554,23.554,0,0,1,4.137,0Z"/><path class="b" d="M324.962,97.454a23.556,23.556,0,0,1-4.137,0,23.554,23.554,0,0,1,4.137,0Z"/><path class="f" d="M320.537,90.735h49.334a23.18,23.18,0,0,1,0,8.838H320.748v-.6h3a1.418,1.418,0,0,0,1.418-1.418V92.663a1.417,1.417,0,0,0-1.418-1.417h-3.212Z"/><path class="g" d="M332.2,95.159h.823a.2.2,0,0,1,.089.022.168.168,0,0,1,.088.155.2.2,0,0,1-.006.053c-.016.07-.035.14-.056.211a2.332,2.332,0,0,1-.515.931.974.974,0,0,1-.7.363.848.848,0,0,1-.1-.006.8.8,0,0,1-.56-.4,1.852,1.852,0,0,1-.246-.992,2.629,2.629,0,0,1,.1-.706,2.351,2.351,0,0,1,.489-.954.993.993,0,0,1,.741-.394.707.707,0,0,1,.312.071,1.008,1.008,0,0,1,.48.6.174.174,0,0,1,.02.082.177.177,0,0,1-.024.089.171.171,0,0,1-.153.088.181.181,0,0,1-.055-.009.166.166,0,0,1-.113-.111l-.009-.015a.891.891,0,0,0-.1-.195.47.47,0,0,0-.394-.235.463.463,0,0,0-.272.1,1.459,1.459,0,0,0-.45.646,2.429,2.429,0,0,0-.2.929,1.667,1.667,0,0,0,.142.729.48.48,0,0,0,.43.323.588.588,0,0,0,.4-.24,2.2,2.2,0,0,0,.422-.765q-.568,0-.59-.006c-.129-.021-.2-.087-.2-.2a.161.161,0,0,1,.017-.06A.187.187,0,0,1,332.2,95.159Z"/><path class="g" d="M335,93.552c.007.017.015.037.022.06q.053.182.581,3.057a.141.141,0,0,1,.008.044.191.191,0,0,1-.024.091.163.163,0,0,1-.147.09l-.028,0a.161.161,0,0,1-.137-.122l-.2-1.015h-1.013l-.488,1.019a.173.173,0,0,1-.016.034.2.2,0,0,1-.152.086.177.177,0,0,1-.177-.177.129.129,0,0,1,.011-.053c.03-.071.081-.183.151-.335q1.064-2.322,1.272-2.741a.192.192,0,0,1,.171-.124A.188.188,0,0,1,335,93.552Zm-.221.684-.548,1.153h.774Z"/><path class="g" d="M337.753,96.894h-1.487a.169.169,0,0,1-.1-.029.275.275,0,0,1-.084-.186v0q0-.09.411-3.044a.459.459,0,0,1,.009-.065.174.174,0,0,1,.335.069q-.02.2-.1.834-.255,1.95-.267,2.058h1.264a.247.247,0,0,1,.1.018.166.166,0,0,1,.113.166.189.189,0,0,1-.009.057A.206.206,0,0,1,337.753,96.894Z"/><path class="g" d="M339.786,93.552c.007.017.014.037.022.06q.052.182.581,3.057a.141.141,0,0,1,.008.044.19.19,0,0,1-.024.091.164.164,0,0,1-.148.09l-.028,0a.16.16,0,0,1-.136-.122l-.2-1.015h-1.014l-.487,1.019a.174.174,0,0,1-.016.034.2.2,0,0,1-.153.086.179.179,0,0,1-.177-.177.148.148,0,0,1,.011-.053c.031-.071.081-.183.151-.335q1.064-2.322,1.272-2.741a.193.193,0,0,1,.172-.124A.189.189,0,0,1,339.786,93.552Zm-.221.684-.549,1.153h.774Z"/><path class="g" d="M342.155,95.307l.268.745c.154.424.231.647.231.671a.158.158,0,0,1-.029.09.169.169,0,0,1-.149.081.161.161,0,0,1-.147-.119c-.011-.032-.021-.057-.028-.075q-.121-.277-.4-1.049l-.842,1.15a.2.2,0,0,1-.157.093.189.189,0,0,1-.092-.024.163.163,0,0,1-.084-.149c0-.014,0-.026,0-.037a.437.437,0,0,1,.089-.144q.423-.546.934-1.3c-.036-.1-.069-.192-.1-.28q-.474-1.272-.474-1.315a.194.194,0,0,1,.022-.091.156.156,0,0,1,.144-.088.181.181,0,0,1,.166.1l.5,1.339L343,93.55a.2.2,0,0,1,.158-.084.174.174,0,0,1,.082.02.168.168,0,0,1,.086.158.218.218,0,0,1-.018.082Z"/><path class="g" d="M345.834,93.475a.183.183,0,0,1,.082.02.176.176,0,0,1,.1.153q-.364,2.883-.4,3.116a1.906,1.906,0,0,1-.319.812,1.145,1.145,0,0,1-1.463.358,1.052,1.052,0,0,1-.524-.46.181.181,0,0,1-.02-.086.177.177,0,0,1,.024-.089.169.169,0,0,1,.288-.015.954.954,0,0,0,.761.433.752.752,0,0,0,.591-.3,1.644,1.644,0,0,0,.328-.935.9.9,0,0,1-.753.407.692.692,0,0,1-.1-.007.792.792,0,0,1-.564-.405,1.837,1.837,0,0,1-.248-.991q0-.27.025-.558.042-.452.2-1.281a.178.178,0,0,1,.016-.051.163.163,0,0,1,.159-.122.172.172,0,0,1,.086.024.157.157,0,0,1,.089.142,6.679,6.679,0,0,1-.082.678,9.443,9.443,0,0,0-.118,1.037,2.082,2.082,0,0,0,.133.806q.153.363.441.363a.325.325,0,0,0,.06-.007.809.809,0,0,0,.444-.356,2.218,2.218,0,0,0,.368-.82l.225-1.695a.225.225,0,0,1,.023-.075A.162.162,0,0,1,345.834,93.475Z"/><path class="a" d="M368.018,99.688c-.05,0-.091-2.03-.091-4.534s.041-4.534.091-4.534.091,2.029.091,4.534S368.068,99.688,368.018,99.688Z"/><path class="b" d="M327.648,99.688c-.05,0-.091-2.03-.091-4.534s.041-4.534.091-4.534.091,2.029.091,4.534S327.7,99.688,327.648,99.688Z"/><path class="a" d="M368.883,99.688c-.05,0-.091-2.03-.091-4.534s.041-4.534.091-4.534.091,2.029.091,4.534S368.934,99.688,368.883,99.688Z"/><path class="b" d="M326.839,99.688c-.05,0-.091-2.03-.091-4.534s.041-4.534.091-4.534.091,2.029.091,4.534S326.889,99.688,326.839,99.688Z"/><path class="b" d="M356.056,92.114l-.008-.016,5.214,4.206.046.038-.057.015-.694.182-4.4,1.155-.009,0-.008,0L352.148,96l-1.13-.484-.3-.13-.076-.034a.124.124,0,0,1-.025-.013l.027.009.078.03.3.123,1.135.469,4,1.672h-.018l4.4-1.161.694-.182-.011.052-5.2-4.22-.007-.006v-.01"/><path class="b" d="M360.791,95.649l.284.268.382-.082-.167.353.2.337-.387-.049-.26.291-.073-.383-.357-.158.342-.188Z"/><path class="b" d="M355.789,97.307l.194.162.243-.068-.094.235.14.21-.252-.017-.157.2-.062-.245-.237-.088.214-.135Z"/><path class="b" d="M350.265,95.041l.309.019.191-.244.077.3.291.107-.262.166-.012.31-.239-.2-.3.085.114-.288Z"/><path class="b" d="M363.128,92.18l.31.019.191-.244.077.3.291.107-.262.166-.012.31-.239-.2-.3.085.114-.288Z"/><path class="b" d="M355.8,91.976l.2.012.122-.156.049.192.186.068-.167.106-.007.2-.152-.126-.19.054.073-.184Z"/><path class="b" d="M363.563,92.4c0,.02-1.687-.036-3.767-.125s-3.765-.178-3.764-.2,1.687.036,3.767.125S363.564,92.377,363.563,92.4Z"/><path class="b" d="M365.458,90.658H315.423a4.2,4.2,0,0,1,0-4.165h50.035A4.828,4.828,0,0,1,365.458,90.658Z"/><rect class="f" width="27.107" height="1.516" transform="translate(325.784 87.683)"/><path class="b" d="M317.344,90.68a1.45,1.45,0,0,1-.395-.5,3.681,3.681,0,0,1-.266-3.014,1.452,1.452,0,0,1,.3-.565,4.742,4.742,0,0,1-.179.6,4.208,4.208,0,0,0,.257,2.915A4.942,4.942,0,0,1,317.344,90.68Z"/><path class="b" d="M318.426,90.68a1.463,1.463,0,0,1-.395-.5,3.675,3.675,0,0,1-.265-3.014,1.475,1.475,0,0,1,.3-.565,4.821,4.821,0,0,1-.178.6,4.216,4.216,0,0,0,.256,2.915A4.739,4.739,0,0,1,318.426,90.68Z"/><path class="a" d="M363.433,90.583a6.278,6.278,0,0,0,.024-4.076,4.239,4.239,0,0,1-.024,4.076Z"/><path class="a" d="M362.5,90.573c-.055-.013.156-.892.15-1.994s-.21-1.981-.155-1.994a6.11,6.11,0,0,1,.005,3.988Z"/><path class="b" d="M384.067,64.854H418.4v44.8H384.3Z"/><rect class="h" width="34.137" height="44.349" transform="translate(415.711 109.423) rotate(180)"/><path class="b" d="M415.881,64.9v44.688H381.4V64.9Zm-.339,44.35V65.243h-33.8v44.011Z"/><rect class="h" width="26.135" height="34.743" transform="translate(385.134 69.885)"/><path class="b" d="M385.082,69.877s0,.058.005.168,0,.277.005.489c0,.434,0,1.068.009,1.893,0,1.655.012,4.069.021,7.125.01,6.11.024,14.785.04,25.068l-.08-.08,26.133-.009h0l-.088.089c.006-12.938.011-24.931.016-34.743l.072.072-18.978-.037-5.284-.019-1.392-.008c-.315,0-.482-.008-.482-.008s.156,0,.467-.008l1.378-.008,5.268-.019,19.023-.037h.072v.073c.005,9.812.01,21.805.016,34.743v.088h-.091l-26.133-.009H385v-.079c.016-10.3.03-19,.039-25.119.01-3.05.017-5.457.022-7.108,0-.818.007-1.447.009-1.877l.005-.48C385.079,69.929,385.082,69.877,385.082,69.877Z"/><path class="b" d="M381.495,109.423a4.28,4.28,0,0,1,.461-.75c.3-.45.732-1.066,1.224-1.732s.958-1.256,1.307-1.673a4.147,4.147,0,0,1,.6-.648,4.616,4.616,0,0,1-.5.725c-.361.485-.789,1.063-1.263,1.7l-1.265,1.7A4.372,4.372,0,0,1,381.495,109.423Z"/><path class="b" d="M381.574,65.074a25.05,25.05,0,0,1,1.825,2.349,24.991,24.991,0,0,1,1.683,2.454,25.194,25.194,0,0,1-1.825-2.35A25.275,25.275,0,0,1,381.574,65.074Z"/><line class="h" x1="4.493" y2="4.98" transform="translate(411.218 65.074)"/><path class="b" d="M411.218,70.053A32.129,32.129,0,0,1,413.4,67.5a31.8,31.8,0,0,1,2.312-2.431,32.228,32.228,0,0,1-2.181,2.549A31.887,31.887,0,0,1,411.218,70.053Z"/><path class="b" d="M415.711,109.423a29.073,29.073,0,0,1-2.211-2.318,29.325,29.325,0,0,1-2.08-2.436,58.2,58.2,0,0,1,4.291,4.754Z"/><path class="b" d="M386.333,104.619s2.812-8.713,4.481-9.638a16.025,16.025,0,0,1,7.34-1.987c3.869-.033,5.714.252,7.983,1.814,2.621,1.8,4.4,9.724,4.4,9.724"/><path class="b" d="M394.13,78.676c-2.4.107-2.991,3.335-2.828,5.176a4.34,4.34,0,0,1-.1,2.579c-.312.536-.927.859-1.186,1.423a3.121,3.121,0,0,0,.217,2.2,1.991,1.991,0,0,1-.248,2.116,20.9,20.9,0,0,0,4.149.782,7.006,7.006,0,0,0,4.065-.906"/><path class="b" d="M392.414,85.118a4.936,4.936,0,0,1,1.969-6.653,5.906,5.906,0,0,1,2.789-.6,10.265,10.265,0,0,1,2.826.251,5.08,5.08,0,0,1,2.451,1.372,6.291,6.291,0,0,1,1.319,4.733,13.2,13.2,0,0,1-1.659,5.662,1.393,1.393,0,0,1-.49.574.519.519,0,0,1-.681-.121"/><path class="a" d="M397.769,97.586c1.632.11,3.056-1.289,3.227-3.8l.87-12.78-.06.883a1.026,1.026,0,0,0-.922-1.038l-5.065-.521a3.082,3.082,0,0,0-3.391,2.883,31.14,31.14,0,0,0,.052,5.776,3.635,3.635,0,0,0,2.71,3.282l-.175,2.118a2.964,2.964,0,0,0,2.754,3.2Z"/><path class="b" d="M393.4,84.856a.374.374,0,0,0,.362.376.358.358,0,0,0,.385-.338.375.375,0,0,0-.362-.377A.358.358,0,0,0,393.4,84.856Z"/><path class="b" d="M392.948,84.445c.047.049.33-.162.733-.162s.7.2.742.151c.021-.022-.027-.11-.156-.2a1.022,1.022,0,0,0-.594-.181.982.982,0,0,0-.582.19C392.967,84.335,392.925,84.424,392.948,84.445Z"/><path class="b" d="M397.269,84.856a.374.374,0,0,0,.362.376.358.358,0,0,0,.385-.338.375.375,0,0,0-.362-.377A.358.358,0,0,0,397.269,84.856Z"/><path class="b" d="M396.908,84.509c.046.049.329-.162.732-.162s.7.2.742.151c.021-.022-.026-.11-.155-.2a1.031,1.031,0,0,0-.594-.182,1,1,0,0,0-.583.19C396.927,84.4,396.885,84.487,396.908,84.509Z"/><path class="b" d="M395.454,87.5a2.669,2.669,0,0,0-.654-.116c-.1-.01-.2-.03-.218-.1a.526.526,0,0,1,.068-.306c.1-.249.2-.51.3-.784a13.489,13.489,0,0,0,.677-2.05,13.439,13.439,0,0,0-.841,1.991l-.289.789a.6.6,0,0,0-.052.4.258.258,0,0,0,.17.149.694.694,0,0,0,.174.024A2.6,2.6,0,0,0,395.454,87.5Z"/><path class="f" d="M395.19,92.267a7.425,7.425,0,0,0,3.906-1.054,3.918,3.918,0,0,1-3.964,1.758Z"/><path class="b" d="M395.628,88.47a.727.727,0,0,1,.649-.271.663.663,0,0,1,.459.244.421.421,0,0,1,.033.48.488.488,0,0,1-.528.135,1.514,1.514,0,0,1-.515-.306.449.449,0,0,1-.116-.118.136.136,0,0,1,0-.15"/><path class="b" d="M396.641,87.775c-.066,0-.065.434-.439.745s-.839.265-.842.326c-.006.028.1.085.3.09a1.088,1.088,0,0,0,.7-.248.944.944,0,0,0,.339-.624C396.72,87.881,396.67,87.773,396.641,87.775Z"/><path class="b" d="M396.724,83.8c.04.11.442.057.915.112s.855.184.918.085c.028-.047-.039-.15-.194-.255a1.6,1.6,0,0,0-1.4-.15C396.794,83.666,396.707,83.752,396.724,83.8Z"/><path class="b" d="M393.093,83.279c.071.091.348,0,.682-.01s.616.06.681-.036c.028-.046-.016-.138-.14-.224a.989.989,0,0,0-1.1.037C393.1,83.14,393.062,83.235,393.093,83.279Z"/><path class="b" d="M394.707,78.292c2.827-1.59,5.863-.479,8.15,1.82a5.638,5.638,0,0,0,1.617,1.385c.71.3,1.656.255,2.078.9.494.756-.171,1.823.189,2.651.331.763,1.377.983,1.766,1.718a2.8,2.8,0,0,1-.029,1.913,1.918,1.918,0,0,0,.28,1.846l-6.084,2.31a1.567,1.567,0,0,1-.855.093c-.864-.172-.927-.972-.846-1.634a2.721,2.721,0,0,0-.04-1.473c-.247-.534-.876-.821-1.1-1.366-.392-.963.7-1.966.565-3a1.936,1.936,0,0,0-1.238-1.4c-.6-.26-1.259-.345-1.881-.545a5.634,5.634,0,0,1-3.229-3.235,1.576,1.576,0,0,1,.654-1.982Z"/><path class="b" d="M397.005,377.114a31.949,31.949,0,0,0-13.674-4.706c-2.234-.23-4.675-.165-6.467,1.189a1.329,1.329,0,0,0-.667,1.181,1.443,1.443,0,0,0,.633.808,19.55,19.55,0,0,0,20.175,1.528"/><path class="b" d="M396.654,376.727a66.671,66.671,0,0,1-8.831-7.77,22.335,22.335,0,0,1-5.537-10.24,4.128,4.128,0,0,1,.437-3.427c7.04,5.5,12.57,12.609,13.931,21.437"/><path class="b" d="M396.932,377.061a31.947,31.947,0,0,1,.164-11.6,15.676,15.676,0,0,1,6.176-9.568c1.217,2.843.694,6.119-.163,9.09a44.18,44.18,0,0,1-6.124,12.895"/><path class="b" d="M403.833,389.427c-4.189.509-7.837,2.717-10.965,5.55a20.741,20.741,0,0,0-6.273,10.768c4.109-.254,7.6-3.152,10.124-6.4s4.28-6.815,7.057-9.854"/><path class="b" d="M405.332,391.4a27.048,27.048,0,0,1,3.123-25.583c2.387,8.489,1.511,18.079-3.123,25.583"/><path class="b" d="M414.451,402.262a19.557,19.557,0,0,0-18.7,10.764c-.232.463-.436,1.052-.126,1.467a1.389,1.389,0,0,0,1.24.364c3.685-.238,6.952-2.456,9.647-4.981s5.043-5.441,8.021-7.625"/><path class="b" d="M414.16,401.671a34.825,34.825,0,0,1-.348-19.455c.686-2.5,1.836-5.14,4.152-6.315a.815.815,0,0,1,.635-.111.831.831,0,0,1,.4.465,11.715,11.715,0,0,1,.979,5.581,34.943,34.943,0,0,1-.874,5.651c-.729,3.453-1.118,7.164-3.012,10.142a20.787,20.787,0,0,0-1.2,2.228c-.358.757-.361,1.023-.69,1.625"/><path class="b" d="M438.3,405.267c-1.788-6.8.11-15.048,4.4-20.625.315-.41.734-.85,1.249-.8.79.073.994,1.125.959,1.917a37.269,37.269,0,0,1-6.605,19.511"/><path class="b" d="M440.473,406.755a30,30,0,0,0,24.618-5.008,19.936,19.936,0,0,0-13.327-1.635c-4.452,1.018-8.52,3.013-11.291,6.643"/><path class="b" d="M442.308,402.225c4.628-7.545,13.5-12.471,22.343-12.919-1.019,3.6-3.974,6.391-7.308,8.08a40.569,40.569,0,0,1-10.725,3.136c-1.427.277-3.385.582-4.31,1.7"/><path class="b" d="M438.756,380.248a64.856,64.856,0,0,0,2.858-13.085,21.791,21.791,0,0,0-2.606-12.943c-4.324,8.366-4.761,18.14-.381,26.477"/><path class="b" d="M453.312,372.891c5.056-9.188,15.371-16.528,25.808-17.557-4.026,10.025-15.007,17.773-25.808,17.557"/><path class="b" d="M450.131,374.692c7.54,1.149,13.965,5.965,21.011,8.884a9.419,9.419,0,0,0,4.75.91,3.719,3.719,0,0,0,2.328-6.578,10.174,10.174,0,0,0-3.45-2.093c-7.675-3.2-15.9-3.275-23.99-1.337"/><path class="b" d="M445.768,379.981c1.707.489,2.29,1.372,3.642,2.524a39.3,39.3,0,0,0,15.933,8.184c.608.151,1.407.211,1.708-.338.264-.481-.07-1.062-.412-1.49a21.933,21.933,0,0,0-9.62-6.531c-3.677-1.369-6.862-3.019-11.251-2.665"/><path class="b" d="M440.844,348.04a30.154,30.154,0,0,0,23.117,7.865,1.587,1.587,0,0,0,1.053-.378c.581-.633-.117-1.61-.8-2.138-6.8-5.3-15.029-7.5-23.375-5.349"/><path class="b" d="M446.682,345.9a32.22,32.22,0,0,1,28.846-4.759,22.9,22.9,0,0,1-13.746,6.034,43.473,43.473,0,0,1-15.1-1.275"/><path class="b" d="M444.362,331.226c-.668-6.784-.235-12.139-.706-18.954-.037-.545-.154-1.2-.664-1.4-.709-.273-1.3.6-1.533,1.322a21.725,21.725,0,0,0,2.893,18.879"/><path class="b" d="M443.874,331.976a39.906,39.906,0,0,0,11.237-10.922c2.219-3.037,4.091-6.675,3.586-10.4a10.758,10.758,0,0,0-8.106,4.025,22.636,22.636,0,0,0-4.132,8.314c-.9,2.985-1.53,6.052-2.585,8.986"/><path class="b" d="M454.914,328.908A90.6,90.6,0,0,0,482.569,312.6c-3.3-1.331-7.086-.535-10.388.8a32.752,32.752,0,0,0-17.411,15.435"/><path class="b" d="M446.978,335.687a56.258,56.258,0,0,0,15.356.075c4.978-.832,9.683-2.806,14.336-4.764a1.686,1.686,0,0,0,.974-.739,1.122,1.122,0,0,0-.35-1.227,2.962,2.962,0,0,0-1.222-.573c-5.058-1.414-10.516-.752-15.492.926a71.789,71.789,0,0,0-13.6,6.3"/><path class="b" d="M417.827,348.272c-3.483-7.031-3.256-15.235-.248-22.481,2.118,3.227,2.377,7.337,1.99,11.177s-1.557,7.794-1.632,11.653"/><path class="b" d="M403.913,341.254a31.353,31.353,0,0,0-23.3,9.926,21.77,21.77,0,0,0,12.758-2.366A64.848,64.848,0,0,0,404.3,341.5"/><path class="b" d="M394.559,338.126c-4.255-.345-8.348-.872-12.438.381a14.922,14.922,0,0,0-9.481,8.039,22.487,22.487,0,0,0,11.661-2.2,67.143,67.143,0,0,0,10.258-6.218"/><path class="b" d="M408.409,338.269c-3.827-2.508-7.757-5.061-12.213-6.1s-9.62-.271-12.727,3.087c3.607,2.117,7.983,2.367,12.166,2.364s9.31-.051,13.252,1.344"/><path class="b" d="M408.432,338.471c-6.543-6.425-9.023-17.966-6.391-26.75a40.761,40.761,0,0,1,6.391,26.75"/><path class="b" d="M426.423,320.267c1.234-2.868,2.1-5.879,3.209-8.8a25.287,25.287,0,0,1,4.575-8.112,12.049,12.049,0,0,1,8.1-4.2,32.634,32.634,0,0,1-15.727,21.157"/><path class="b" d="M423.167,324.06c-2.042-2.81-4.4-6.626-7.17-8.723s-6.375-3.368-9.754-2.562a22.717,22.717,0,0,0,16.924,11.285"/><path class="b" d="M423.819,320.5a48.485,48.485,0,0,1-3.228-10.452,16.31,16.31,0,0,1,1.636-10.629c3.592,6.789,4.748,14.077,1.775,21.158"/><path class="b" d="M426.456,299.42c2.034-6.73,8.2-11.685,14.85-13.959a5.545,5.545,0,0,1,2.6-.391,2.261,2.261,0,0,1,1.919,1.6c.242,1.145-.7,2.171-1.593,2.931a50.549,50.549,0,0,1-17.78,9.817"/><path class="b" d="M426.529,293.916c.259-4.339.53-8.741,1.941-12.853s4.132-7.968,8.089-9.768c.673,4.383-1.261,8.743-3.592,12.514s-5.143,7.331-6.544,11.538"/><path class="b" d="M426.423,296.9c-1.681-4.905-1.855-11.135-4.792-15.408-2.053-2.987-5.341-5.022-7.11-8.185a12.453,12.453,0,0,0,.414,9.292,26.9,26.9,0,0,0,5.433,7.778c2.173,2.322,4.034,4.068,6.055,6.523"/><path class="b" d="M426.456,441.346c-.131,0-.244-32.72-.253-73.072s.089-73.08.22-73.08.244,32.713.253,73.079S426.586,441.346,426.456,441.346Z"/><path class="b" d="M455.049,343.335a7.01,7.01,0,0,1-1.23.461l-3.386,1.143c-2.854.972-6.776,2.38-11.032,4.125-4.214,1.807-8.189,3.275-10.452,5.236a7.668,7.668,0,0,0-2.1,2.779c-.325.768-.383,1.238-.426,1.23a.955.955,0,0,1,.014-.344,5.179,5.179,0,0,1,.24-.953,7.382,7.382,0,0,1,2.05-2.962,18.384,18.384,0,0,1,4.535-2.817c1.814-.847,3.825-1.73,5.96-2.607,4.269-1.749,8.221-3.112,11.108-4.005,1.442-.45,2.62-.782,3.436-1A6.861,6.861,0,0,1,455.049,343.335Z"/><path class="b" d="M464.422,320.313a2.1,2.1,0,0,1-.345.368l-1.05.986-3.92,3.561-13.046,11.616c-5.092,4.533-9.493,8.865-12.543,12.126-1.527,1.628-2.73,2.978-3.55,3.919l-.948,1.083a2.1,2.1,0,0,1-.354.359,2.022,2.022,0,0,1,.28-.419c.2-.263.486-.655.88-1.141.779-.98,1.946-2.366,3.446-4.028a165.377,165.377,0,0,1,12.474-12.252c5.111-4.522,9.761-8.585,13.14-11.513l4.019-3.449,1.109-.919A2.018,2.018,0,0,1,464.422,320.313Z"/><path class="b" d="M440.564,341.453c-.134-.059.93-2.515,1.99-5.622s1.573-5.727,1.709-5.7A19.208,19.208,0,0,1,443,335.983a38.241,38.241,0,0,1-1.584,3.932A6.116,6.116,0,0,1,440.564,341.453Z"/><path class="b" d="M426.486,361.258a5.808,5.808,0,0,1-.785-.911l-2.01-2.578c-1.689-2.183-4.024-5.2-6.64-8.493s-5.023-6.256-6.766-8.4l-2.054-2.543a5.814,5.814,0,0,1-.709-.971,5.848,5.848,0,0,1,.849.852c.524.567,1.266,1.4,2.17,2.447,1.81,2.087,4.259,5.015,6.88,8.317s4.915,6.35,6.537,8.586c.811,1.118,1.457,2.03,1.891,2.67A5.853,5.853,0,0,1,426.486,361.258Z"/><path class="b" d="M420.216,353.209a11.524,11.524,0,0,1-2.626-4.917,14.048,14.048,0,0,1-.6-4.957l.209.017c-.093.378-.162.578-.2.572s-.039-.217-.008-.606l.209.017a22.594,22.594,0,0,0,.838,4.822A36.719,36.719,0,0,0,420.216,353.209Z"/><path class="b" d="M412.122,343.028a8.421,8.421,0,0,0-1.833-1.066,12.27,12.27,0,0,0-5.092-.4,31.475,31.475,0,0,0-5.127.828,15.694,15.694,0,0,1-2.109.506,7.33,7.33,0,0,1,2.02-.828,23.385,23.385,0,0,1,5.181-.977,11.112,11.112,0,0,1,5.252.566A3.244,3.244,0,0,1,412.122,343.028Z"/><path class="b" d="M410.2,340.56c-.036.074-1.068-.428-2.81-1.023a28.263,28.263,0,0,0-14.158-1.079c-1.811.324-2.907.663-2.932.585a2.7,2.7,0,0,1,.745-.318,17.541,17.541,0,0,1,2.122-.6,24.99,24.99,0,0,1,14.338,1.093,17.558,17.558,0,0,1,2.007.91A2.678,2.678,0,0,1,410.2,340.56Z"/><path class="b" d="M426.423,330.126a58.094,58.094,0,0,1-2.049-7.117,58.039,58.039,0,0,1-1.59-7.234,58.455,58.455,0,0,1,2.049,7.117A58.217,58.217,0,0,1,426.423,330.126Z"/><path class="b" d="M426.553,330.126a34.02,34.02,0,0,0-2.27-4.261,18.722,18.722,0,0,0-3.343-3.45,3.124,3.124,0,0,1,1.29.666,10.4,10.4,0,0,1,2.44,2.512A9.442,9.442,0,0,1,426.553,330.126Z"/><path class="b" d="M426.456,423.9c-.051.008-.147-.787-.516-2.176a31.056,31.056,0,0,0-2.186-5.665,78.449,78.449,0,0,0-11.6-16.344c-2.59-2.959-5.1-5.75-7.236-8.423a59.164,59.164,0,0,1-5.174-7.463,35.839,35.839,0,0,1-2.612-5.537c-.24-.683-.416-1.215-.513-1.584a2.641,2.641,0,0,1-.134-.565c.042-.014.28.749.819,2.083a40.6,40.6,0,0,0,2.729,5.435,62.616,62.616,0,0,0,5.224,7.357c2.142,2.645,4.658,5.422,7.253,8.386,5.24,5.882,9.344,11.814,11.546,16.509a28.363,28.363,0,0,1,2.064,5.767,15.986,15.986,0,0,1,.289,1.641A2.7,2.7,0,0,1,426.456,423.9Z"/><path class="b" d="M452.294,394.72a11.942,11.942,0,0,1-1.354.76,29.592,29.592,0,0,0-3.513,2.322,40.254,40.254,0,0,0-4.612,4.207c-1.619,1.71-3.287,3.7-4.99,5.825-3.4,4.27-6.586,8.048-8.491,11.064-.968,1.5-1.672,2.758-2.133,3.643a11.717,11.717,0,0,1-.745,1.363,1.316,1.316,0,0,1,.125-.384c.1-.244.238-.609.455-1.061a34.551,34.551,0,0,1,2.015-3.739,121.694,121.694,0,0,1,8.406-11.182c1.7-2.132,3.393-4.123,5.043-5.83a37.423,37.423,0,0,1,4.727-4.174,24.627,24.627,0,0,1,3.627-2.217c.449-.225.815-.364,1.057-.468A1.305,1.305,0,0,1,452.294,394.72Z"/><path class="b" d="M452.8,404.188a19.827,19.827,0,0,1-2.863.415,37.809,37.809,0,0,0-6.788,1.337,20.394,20.394,0,0,0-6.078,3.19c-1.4,1.082-2.061,1.978-2.126,1.926a2.156,2.156,0,0,1,.424-.659,10.729,10.729,0,0,1,1.491-1.526A18.393,18.393,0,0,1,443,405.49a30.669,30.669,0,0,1,6.9-1.219A15.66,15.66,0,0,1,452.8,404.188Z"/><path class="b" d="M435.78,410.016c-.149-.085,1.141-2.055,2.141-4.7.939-2.674,1.159-5.019,1.327-4.992a4.527,4.527,0,0,1-.047,1.535,16.5,16.5,0,0,1-.835,3.618,17.512,17.512,0,0,1-1.66,3.318A4.651,4.651,0,0,1,435.78,410.016Z"/><path class="b" d="M460.662,369.3a2.1,2.1,0,0,1-.458.244l-1.345.611c-.59.253-1.305.573-2.11,1s-1.753.847-2.735,1.437l-1.562.888c-.541.311-1.077.681-1.647,1.038-1.151.7-2.3,1.558-3.535,2.436a60.647,60.647,0,0,0-13.614,14.088c-.836,1.26-1.656,2.442-2.314,3.616-.337.582-.689,1.131-.981,1.682l-.834,1.591c-.556,1-.953,1.96-1.343,2.782s-.692,1.545-.925,2.143l-.565,1.365a2.189,2.189,0,0,1-.227.466,2.08,2.08,0,0,1,.137-.5l.484-1.4c.206-.61.478-1.349.854-2.182s.746-1.81,1.286-2.827l.812-1.615c.286-.56.631-1.116.964-1.706.648-1.191,1.461-2.389,2.293-3.665A58.389,58.389,0,0,1,447.011,376.6c1.247-.875,2.417-1.729,3.585-2.418.578-.352,1.122-.716,1.672-1.021l1.586-.866c1-.575,1.957-.986,2.781-1.383s1.549-.7,2.151-.928l1.383-.531A2.167,2.167,0,0,1,460.662,369.3Z"/><path class="b" d="M440.213,383a3.289,3.289,0,0,1,1.124-1.674,7.1,7.1,0,0,1,4.531-1.738,12.382,12.382,0,0,1,4.767.931,6.766,6.766,0,0,1,1.8.876,11.134,11.134,0,0,1-1.913-.56,14.4,14.4,0,0,0-4.642-.775,7.388,7.388,0,0,0-4.328,1.519A13.378,13.378,0,0,0,440.213,383Z"/><path class="b" d="M437.156,386.157a12.086,12.086,0,0,0,1-8.555,2.766,2.766,0,0,1,.532,1.219,8.661,8.661,0,0,1-.732,6.272C437.555,385.816,437.2,386.189,437.156,386.157Z"/><path class="b" d="M403.858,428.592c.7,12.5,4.473,25.221,10.268,38.079h25.2c5.527-12.73,9.035-25.428,9.658-38.079Z"/><path class="g" d="M444.9,448.826c0,.131-8.3.237-18.533.237s-18.534-.106-18.534-.237,8.3-.236,18.534-.236S444.9,448.7,444.9,448.826Z"/><path class="g" d="M444.341,453.356c0,.131-7.78.237-17.374.237s-17.375-.106-17.375-.237,7.777-.236,17.375-.236S444.341,453.225,444.341,453.356Z"/><path class="g" d="M414.533,436.8a71.224,71.224,0,0,1,0,11.611,71.527,71.527,0,0,1,0-11.611Z"/><path class="g" d="M428.037,436.8a76.687,76.687,0,0,1,0,12.024,76.372,76.372,0,0,1,0-12.024Z"/><path class="g" d="M440.714,436.7a79.774,79.774,0,0,1,0,12.264,79.446,79.446,0,0,1,0-12.264Z"/><path class="g" d="M448.188,436.8c0,.131-9.733.237-21.736.237s-21.738-.106-21.738-.237,9.73-.236,21.738-.236S448.188,436.672,448.188,436.8Z"/><path class="i" d="M75.122,389.741c4.091-2.111,8.909-2.386,13.451-1.635,2.44.4,4.984,1.134,6.645,2.967s1.975,5.058.068,6.633a6.362,6.362,0,0,1-4.189,1.063c-3.556-.041-7.5-.667-10.342,1.472-1.621,1.221-2.7,3.25-4.637,3.85a4.581,4.581,0,0,1-5.04-2.242,7.829,7.829,0,0,1-.571-5.778A8.823,8.823,0,0,1,75.122,389.741Z"/><path class="i" d="M65.749,371.646c2.5,3.573,7.364,2.39,9.618.209s3.208-5.342,4.075-8.356c1.982-6.887,3.98-14.112,2.507-21.126a11.735,11.735,0,0,0-2.7-5.743,6.131,6.131,0,0,0-5.81-1.934c-2.452.648-3.976,3.049-5.077,5.333a50.357,50.357,0,0,0-4.976,21.612c-.012,3.481.4,7.131,2.362,10.005"/><path class="i" d="M58.879,376.773c2.716-3.224,3.231-7.926,2.023-11.964a23.064,23.064,0,0,0-7.087-10.28,38.166,38.166,0,0,0-12.689-7.487,13.53,13.53,0,0,0-5.707-.969,5.991,5.991,0,0,0-4.789,2.9c-1.336,2.547-.055,5.637,1.33,8.157a96.623,96.623,0,0,0,8.334,12.692c2.5,3.221,5.36,6.4,9.167,7.853s7.762,1.284,9.78-1.356"/><path class="j" d="M65.579,425.546a7.776,7.776,0,0,0,.227-1.624c.115-1.182.259-2.665.431-4.431a63.884,63.884,0,0,1,1-6.5,50.125,50.125,0,0,1,2.362-7.671,28.3,28.3,0,0,1,3.917-6.941,14.64,14.64,0,0,1,4.952-4.117,13.845,13.845,0,0,1,4.17-1.3,7.839,7.839,0,0,0,1.617-.234,7.545,7.545,0,0,0-1.645-.026,12.662,12.662,0,0,0-4.349,1.132,14.6,14.6,0,0,0-5.224,4.153,27.632,27.632,0,0,0-4.06,7.08,46.842,46.842,0,0,0-2.345,7.8,54.821,54.821,0,0,0-.864,6.581c-.141,1.882-.194,3.4-.22,4.458A7.718,7.718,0,0,0,65.579,425.546Z"/><path class="j" d="M65.885,422.136a3.225,3.225,0,0,0,.043-.753c0-.566,0-1.279-.005-2.155-.006-1.869,0-4.575.1-7.916.166-6.682.741-13.873,1.852-24.012,1.053-9.534,2.465-20.628,3.956-27.842.319-1.641.641-3.117.944-4.41s.536-2.413.774-3.316c.205-.851.371-1.544.5-2.094a3.117,3.117,0,0,0,.131-.744,3.233,3.233,0,0,0-.261.707c-.165.542-.372,1.225-.626,2.064-.277.895-.562,2.005-.886,3.3s-.694,2.76-1.044,4.4A244.71,244.71,0,0,0,67.2,385.194c-1.113,10.16-1.615,19.411-1.659,26.109-.04,3.35.031,6.061.117,7.932.053.875.1,1.587.131,2.153A3.182,3.182,0,0,0,65.885,422.136Z"/><path class="j" d="M65.929,404.294a14.2,14.2,0,0,0-.015-2.25c-.083-1.447-.282-3.537-.69-6.1a80.374,80.374,0,0,0-1.982-8.884,72.917,72.917,0,0,0-3.715-10.512,56.016,56.016,0,0,0-10.909-16.986,27.8,27.8,0,0,0-2.567-2.386c-.394-.333-.742-.665-1.1-.928l-1-.686a14.258,14.258,0,0,0-1.894-1.213,67.2,67.2,0,0,1,6.21,5.54,59.011,59.011,0,0,1,10.637,16.926,82.94,82.94,0,0,1,3.735,10.415,89.9,89.9,0,0,1,2.11,8.8c.465,2.534.734,4.6.9,6.037A14.472,14.472,0,0,0,65.929,404.294Z"/><path class="j" d="M48.684,435.768l1.788,24.494H81.938l1.788-24.494Z"/><rect class="j" width="41.836" height="9.655" transform="translate(45.645 426.113)"/><path class="k" d="M45.645,459.324V462H86.789v-2.676Z"/><path class="k" d="M49.537,466.71,47.61,462H85.29l-2.248,4.71Z"/><path class="b" d="M83.142,443.773A1.023,1.023,0,0,1,83,444l-.47.624-1.833,2.345-.082.1-.079-.109-4.5-6.229h.259l-4.434,6.278-.139.2-.155-.185L66.3,440.768l.3,0-.289.363-4.7,5.895-.156.2-.145-.2-4.436-6.277.258.012-5.463,6.225-.1.11-.074-.124-1.711-2.874c-.179-.312-.323-.564-.439-.765a1.276,1.276,0,0,1-.134-.273,1.2,1.2,0,0,1,.184.243l.485.736,1.8,2.822-.171-.014,5.376-6.3.135-.158.123.171,4.475,6.248-.3-.008,4.691-5.9.289-.363.15-.188.153.184,5.244,6.269-.294.011,4.478-6.246.131-.183.128.183c1.774,2.533,3.281,4.685,4.408,6.3l-.16-.005,1.907-2.286.511-.591C83.07,443.832,83.134,443.767,83.142,443.773Z"/><path class="k" d="M84.164,435.606c0,.109-7.885.2-17.608.2s-17.61-.087-17.61-.2,7.883-.2,17.61-.2S84.164,435.5,84.164,435.606Z"/><path class="j" d="M85.753,462.264c0,.108-8.568.2-19.136.2s-19.139-.088-19.139-.2,8.567-.2,19.139-.2S85.753,462.156,85.753,462.264Z"/><path class="l" d="M166.2,62.07l-17.727.146a4.4,4.4,0,0,0-4.265,4.535l.027,3.216a4.4,4.4,0,0,1-4.266,4.535l-34.554.285a4.409,4.409,0,0,1-4.343-4.465l-.027-3.216A4.408,4.408,0,0,0,96.7,62.642l-6.235.051-15.515.128A13.95,13.95,0,0,0,61.113,76.89l1.93,223.735a13.948,13.948,0,0,0,14.063,13.829l91.249-.751a13.949,13.949,0,0,0,13.833-14.069L180.259,75.9A13.95,13.95,0,0,0,166.2,62.07Z"/><path class="j" d="M166.2,62.07s.16,0,.478.01a10.379,10.379,0,0,1,1.415.1,13.141,13.141,0,0,1,5.248,1.761,13.367,13.367,0,0,1,3.206,2.551,13.953,13.953,0,0,1,2.693,4.141,14.442,14.442,0,0,1,1.094,5.653q.031,3.09.066,6.576c.175,18.587.428,45.476.741,78.7s.654,72.792,1.049,116.722q.072,8.238.147,16.675.02,2.109.038,4.23a14.953,14.953,0,0,1-.5,4.26,14.111,14.111,0,0,1-1.747,3.947,15.117,15.117,0,0,1-2.878,3.25,14.107,14.107,0,0,1-8.027,3.2c-2.925.111-5.829.073-8.767.117l-17.765.148-36.458.3-18.647.154-9.418.078a14.743,14.743,0,0,1-9.106-2.429,14.282,14.282,0,0,1-5.6-7.589,15.379,15.379,0,0,1-.624-4.714q-.02-2.355-.04-4.7-.081-9.392-.16-18.653-.159-18.52-.312-36.468c-.2-23.909-.4-46.97-.583-68.94s-.357-42.845-.519-62.382Q61.1,94.113,60.992,80.5q-.013-1.7-.027-3.384c0-.562.038-1.131.063-1.693.094-.556.132-1.121.271-1.665a14.267,14.267,0,0,1,2.882-5.936,14.152,14.152,0,0,1,11.33-5.14l12.159-.093,5.85-.045,2.866-.022a4.463,4.463,0,0,1,2.752.743,4.616,4.616,0,0,1,1.727,2.226,7.483,7.483,0,0,1,.307,2.753q.006.681.011,1.358a10.01,10.01,0,0,0,.055,1.329,4.4,4.4,0,0,0,1.062,2.325,4.108,4.108,0,0,0,2.143,1.305,4.709,4.709,0,0,0,1.258.113l1.285-.01,5.035-.037,18.394-.135,8.109-.059c.64-.016,1.292.019,1.9-.04a4.092,4.092,0,0,0,1.7-.616,4.416,4.416,0,0,0,1.931-2.827,7.754,7.754,0,0,0,.094-1.695q-.006-.846-.012-1.668a9.605,9.605,0,0,1,.059-1.628,4.737,4.737,0,0,1,.513-1.5,4.4,4.4,0,0,1,2.21-1.988,6.99,6.99,0,0,1,2.767-.32l9.049-.055,5.564-.027c1.254,0,1.9.005,1.9.005s-.642.019-1.9.036l-5.564.065-9.049.094a6.885,6.885,0,0,0-2.72.319,4.281,4.281,0,0,0-2.139,1.936,4.609,4.609,0,0,0-.493,1.456,9.34,9.34,0,0,0-.053,1.6q.007.822.016,1.669a7.834,7.834,0,0,1-.093,1.727,4.571,4.571,0,0,1-1.993,2.933,4.246,4.246,0,0,1-1.769.644c-.646.063-1.27.028-1.919.047l-8.109.075-18.393.167-5.035.046L105.7,74.9a4.934,4.934,0,0,1-1.314-.117,4.345,4.345,0,0,1-2.266-1.374A4.655,4.655,0,0,1,101,70.959a10.4,10.4,0,0,1-.059-1.36q-.006-.676-.012-1.358a7.265,7.265,0,0,0-.3-2.669A4.368,4.368,0,0,0,99,63.468a4.209,4.209,0,0,0-2.61-.7l-2.866.025-5.85.052-12.159.107A13.876,13.876,0,0,0,64.406,68a14,14,0,0,0-2.816,5.815c-.136.532-.171,1.086-.263,1.63-.024.552-.059,1.1-.061,1.661q.015,1.685.031,3.384.123,13.6.255,28.271c.174,19.537.36,40.413.556,62.382s.4,45.031.606,68.94q.156,17.931.317,36.468.081,9.26.162,18.652.02,2.348.04,4.7a14.968,14.968,0,0,0,.608,4.6,13.888,13.888,0,0,0,5.441,7.377,14.338,14.338,0,0,0,8.882,2.36l9.418-.077,18.647-.153,36.458-.3,17.765-.144c2.927-.043,5.865-.005,8.743-.114a13.737,13.737,0,0,0,7.814-3.109,14.7,14.7,0,0,0,2.8-3.163,13.728,13.728,0,0,0,1.7-3.841,14.534,14.534,0,0,0,.485-4.159q-.018-2.123-.035-4.231-.072-8.436-.14-16.675c-.363-43.931-.69-83.5-.965-116.723s-.47-60.115-.616-78.7q-.024-3.484-.047-6.575a14.338,14.338,0,0,0-1.068-5.61,13.865,13.865,0,0,0-2.656-4.119,13.927,13.927,0,0,0-8.387-4.339,11.082,11.082,0,0,0-1.411-.117C166.357,62.084,166.2,62.07,166.2,62.07Z"/><path class="j" d="M169.092,84.638c0,.06-2.3.148-5.147.2s-5.15.04-5.151-.02,2.3-.148,5.147-.2S169.091,84.578,169.092,84.638Z"/><path class="j" d="M169.137,87.273c0,.06-2.3.148-5.147.2s-5.15.04-5.151-.02,2.3-.148,5.147-.2S169.136,87.213,169.137,87.273Z"/><path class="j" d="M169.182,89.908c0,.059-2.3.148-5.147.2s-5.15.04-5.151-.02,2.3-.148,5.147-.2S169.181,89.847,169.182,89.908Z"/><path class="j" d="M75.5,93.741a1.769,1.769,0,0,1,.214-.016l.6-.025,2.2-.071-.06.062c-.012-.487-.026-1.02-.04-1.594,0-.3-.03-.576,0-.918a.847.847,0,0,1,.732-.685c.355-.01.667-.029,1.051-.014a.853.853,0,0,1,.728.843c.015.743.031,1.52.047,2.325l-.1-.1,2.774-.053-.1.108c-.02-1.117-.041-2.272-.062-3.456,0-.3-.01-.589-.015-.88a.9.9,0,0,0-.4-.652l-1.223-1.185-1.18-1.144-.572-.555c-.2-.186-.351-.379-.577-.423a.748.748,0,0,0-.636.127c-.166.144-.344.346-.512.513l-.986,1.012c-.62.656-1.267,1.256-1.736,1.822a1.972,1.972,0,0,0-.131,1.036c0,.344,0,.67.007.978q0,.9,0,1.574c0,.4,0,.735,0,1.007a3.04,3.04,0,0,1-.01.363,2.677,2.677,0,0,1-.022-.333c-.01-.268-.022-.595-.036-.991q-.021-.681-.05-1.587c-.009-.313-.018-.646-.027-1,0-.178-.009-.359-.014-.546a1.159,1.159,0,0,1,.148-.582c.508-.633,1.116-1.195,1.74-1.87l.979-1.02c.177-.176.321-.351.531-.535a.94.94,0,0,1,.8-.166,1.5,1.5,0,0,1,.67.471l.574.552,1.184,1.14L83.2,88.46a2.3,2.3,0,0,1,.313.333.913.913,0,0,1,.15.467q.007.439.015.884c.02,1.184.039,2.339.057,3.457l0,.106-.106,0-2.774.042-.1,0v-.1c-.011-.805-.022-1.582-.033-2.325a.669.669,0,0,0-.566-.669c-.32-.014-.7,0-1.006.006a.682.682,0,0,0-.594.545c-.024.279,0,.6,0,.886q.007.862.015,1.6v.062h-.061l-2.235,0-.583,0A1.127,1.127,0,0,1,75.5,93.741Z"/><rect class="a" width="97.271" height="17.694" rx="7.461" transform="translate(71.48 107.704) rotate(-0.505)"/><path class="j" d="M161.443,124.605s.19-.023.558-.051a8.062,8.062,0,0,0,1.6-.327,7.662,7.662,0,0,0,2.328-1.251,7.314,7.314,0,0,0,2.194-2.832,7.121,7.121,0,0,0,.567-2.067,18.806,18.806,0,0,0,.046-2.383,16,16,0,0,0-.137-2.592,7.363,7.363,0,0,0-5.928-5.952,20.346,20.346,0,0,0-3.382-.1l-3.594.038-76.751.73a7.292,7.292,0,0,0-7.2,6.738c-.053.882,0,1.813-.007,2.712a8.485,8.485,0,0,0,.3,2.629,7.339,7.339,0,0,0,3.05,4.1,7.006,7.006,0,0,0,2.365.984,10.749,10.749,0,0,0,2.561.17l5.152-.043,9.974-.082,34.5-.265,23.263-.148,6.325-.022,1.645,0c.37,0,.56.013.56.013s-.19.014-.56.024l-1.645.032-6.324.09-23.262.263-34.5.343-9.974.094-5.152.048a11.084,11.084,0,0,1-2.64-.176,7.351,7.351,0,0,1-2.481-1.031A7.7,7.7,0,0,1,71.7,120a8.854,8.854,0,0,1-.314-2.726c.006-.912-.048-1.8.007-2.741a7.653,7.653,0,0,1,7.552-7.075l76.751-.623,3.595-.026a20.49,20.49,0,0,1,3.426.116,7.563,7.563,0,0,1,6.071,6.146,16.184,16.184,0,0,1,.125,2.622,18.988,18.988,0,0,1-.063,2.4,7.271,7.271,0,0,1-.594,2.1,7.393,7.393,0,0,1-2.256,2.86,7.676,7.676,0,0,1-2.374,1.236,7.516,7.516,0,0,1-1.621.294C161.633,124.606,161.443,124.605,161.443,124.605Z"/><path class="j" d="M162.863,115.324c-.035,0-.034-.285-.176-.764a3.191,3.191,0,0,0-1.189-1.67,3.049,3.049,0,1,0,.043,4.891,3.2,3.2,0,0,0,1.16-1.691c.133-.481.127-.768.162-.766.012,0,.021.07.028.206a2.453,2.453,0,0,1-.053.593,3.194,3.194,0,0,1-1.14,1.86,3.323,3.323,0,0,1-3.161.546,3.36,3.36,0,0,1-.055-6.334,3.323,3.323,0,0,1,3.169.49,3.19,3.19,0,0,1,1.173,1.839,2.409,2.409,0,0,1,.063.593C162.883,115.253,162.875,115.324,162.863,115.324Z"/><path class="j" d="M164.676,120.834a12.443,12.443,0,0,1-2.9-3.082,12.443,12.443,0,0,1,2.9,3.082Z"/><path class="b" d="M84.674,114.665l-1.735.015,0-.451,3.992-.035,0,.451-1.735.015.039,4.487-.522,0Z"/><path class="b" d="M90.524,117.4l-3.1.027a1.373,1.373,0,0,0,1.471,1.278,1.465,1.465,0,0,0,1.132-.5l.285.322a1.962,1.962,0,0,1-3.39-1.254,1.787,1.787,0,0,1,1.8-1.9,1.768,1.768,0,0,1,1.815,1.868C90.531,117.287,90.524,117.343,90.524,117.4Zm-3.106-.347,2.631-.023a1.318,1.318,0,0,0-2.631.023Z"/><path class="b" d="M93.826,119.071l-1.191-1.542-1.172,1.563-.564,0,1.45-1.918-1.412-1.793.564-.005,1.127,1.443,1.1-1.463.55,0L92.9,117.174l1.5,1.892Z"/><path class="b" d="M97.182,118.816a1.191,1.191,0,0,1-.781.267.982.982,0,0,1-1.1-1.069l-.02-2.243-.663.006,0-.424.664-.006-.007-.811.5,0,.007.811,1.129-.01,0,.423-1.129.01.02,2.215a.594.594,0,0,0,.647.672.827.827,0,0,0,.549-.2Z"/><rect class="i" width="21.291" height="21.291" transform="translate(75.868 140.065) rotate(-0.505)"/><path class="i" d="M138.134,141.661c0,.1-7.117.244-15.9.321s-15.9.059-15.9-.041,7.116-.243,15.9-.321S138.133,141.561,138.134,141.661Z"/><path class="j" d="M163.548,147.964c0,.1-12.794.294-28.575.433s-28.58.171-28.581.071,12.792-.294,28.578-.433S163.547,147.864,163.548,147.964Z"/><path class="j" d="M162.917,152.631c0,.1-12.644.292-28.239.43s-28.244.168-28.244.068,12.64-.293,28.241-.43S162.916,152.531,162.917,152.631Z"/><path class="j" d="M139.822,157.281c0,.1-7.465.246-16.672.328s-16.676.066-16.677-.034,7.463-.247,16.673-.328S139.821,157.181,139.822,157.281Z"/><rect class="m" width="21.291" height="21.291" transform="translate(76.18 175.39) rotate(-0.505)"/><path class="i" d="M138.447,177.132c0,.1-7.117.244-15.9.321s-15.9.059-15.9-.041,7.116-.244,15.9-.321S138.446,177.032,138.447,177.132Z"/><path class="j" d="M163.861,183.434c0,.1-12.794.294-28.575.433s-28.58.172-28.581.071,12.792-.293,28.578-.432S163.86,183.335,163.861,183.434Z"/><path class="j" d="M163.229,188.1c0,.1-12.643.293-28.238.43s-28.244.168-28.245.068,12.641-.292,28.242-.43S163.228,188,163.229,188.1Z"/><path class="j" d="M140.135,192.751c0,.1-7.465.247-16.673.328s-16.676.066-16.676-.033,7.462-.247,16.673-.329S140.134,192.651,140.135,192.751Z"/><rect class="k" width="21.291" height="21.291" transform="translate(76.492 210.861) rotate(-0.505)"/><path class="i" d="M138.76,212.6c0,.1-7.118.244-15.9.322s-15.9.059-15.9-.041,7.116-.244,15.9-.321S138.759,212.5,138.76,212.6Z"/><path class="j" d="M164.173,218.9c0,.1-12.794.294-28.574.433s-28.58.171-28.581.071,12.791-.294,28.578-.433S164.173,218.8,164.173,218.9Z"/><path class="j" d="M163.542,223.572c0,.1-12.643.293-28.238.43s-28.244.168-28.245.068,12.641-.292,28.241-.43S163.541,223.472,163.542,223.572Z"/><path class="j" d="M140.447,228.222c0,.1-7.464.247-16.672.328s-16.676.066-16.677-.034,7.463-.246,16.674-.328S140.446,228.122,140.447,228.222Z"/><rect class="m" width="21.291" height="21.291" transform="translate(76.805 246.332) rotate(-0.505)"/><path class="k" d="M139.073,248.073c0,.1-7.118.244-15.9.322s-15.9.059-15.9-.041,7.116-.244,15.9-.321S139.072,247.974,139.073,248.073Z"/><path class="j" d="M164.486,254.376c0,.1-12.794.294-28.574.433s-28.58.171-28.581.071,12.791-.294,28.577-.433S164.485,254.276,164.486,254.376Z"/><path class="j" d="M163.855,259.043c0,.1-12.644.293-28.239.43s-28.243.168-28.244.068,12.641-.292,28.241-.43S163.854,258.943,163.855,259.043Z"/><path class="j" d="M140.76,263.693c0,.1-7.464.247-16.672.328s-16.676.066-16.677-.034,7.463-.247,16.674-.328S140.759,263.593,140.76,263.693Z"/><rect class="m" width="21.291" height="21.291" transform="matrix(1, -0.009, 0.009, 1, 77.118, 281.803)"/><path class="b" d="M139.385,283.544c0,.1-7.117.244-15.9.321s-15.9.06-15.9-.04,7.116-.244,15.9-.321S139.385,283.444,139.385,283.544Z"/><path class="f" d="M164.8,289.847c0,.1-12.794.294-28.575.433s-28.58.171-28.58.071,12.791-.294,28.577-.433S164.8,289.747,164.8,289.847Z"/><path class="f" d="M164.168,294.514c0,.1-12.644.292-28.239.43s-28.243.168-28.244.068,12.641-.293,28.241-.43S164.167,294.414,164.168,294.514Z"/><path class="f" d="M141.073,299.164c0,.1-7.465.247-16.672.328s-16.676.066-16.677-.034,7.463-.247,16.674-.328S141.072,299.064,141.073,299.164Z"/><path class="l" d="M415.366,305.349l-11.834-.082a2.935,2.935,0,0,0-2.892,2.975l-.015,2.14a2.934,2.934,0,0,1-2.893,2.976l-23.066-.162a2.938,2.938,0,0,1-2.853-3.015l.015-2.141a2.938,2.938,0,0,0-2.854-3.015l-4.162-.03-10.357-.072a9.3,9.3,0,0,0-9.376,9.224l-.861,95.981a9.3,9.3,0,0,0,9.246,9.347l60.911.426a9.3,9.3,0,0,0,9.375-9.223l.861-95.982A9.3,9.3,0,0,0,415.366,305.349Z"/><path class="j" d="M415.366,305.349l.989.05a9.79,9.79,0,0,1,2.8.763,9.368,9.368,0,0,1,5.5,9c-.079,9.714-.194,23.747-.335,41.085-.074,8.674-.155,18.174-.242,28.371q-.066,7.648-.137,15.8-.035,4.076-.071,8.266a17.308,17.308,0,0,1-.311,4.216,9.346,9.346,0,0,1-1.963,3.8,9.709,9.709,0,0,1-3.5,2.556,10.253,10.253,0,0,1-4.321.731l-8.907-.061-18.37-.126-19.033-.131-9.734-.068c-1.637-.026-3.267.01-4.923-.068a9.367,9.367,0,0,1-7.827-5.447,10.151,10.151,0,0,1-.853-4.838q.043-4.9.088-9.737.087-9.669.172-19.038c.114-12.48.224-24.519.329-35.988q.08-8.6.155-16.759.037-4.076.074-8.028.018-1.977.037-3.922a15.582,15.582,0,0,1,.306-3.853,9.374,9.374,0,0,1,7.952-7.011,35.756,35.756,0,0,1,3.593-.061l6.956.052,3.367.025,1.655.013a2.98,2.98,0,0,1,1.6.4,3.112,3.112,0,0,1,1.49,2.76q-.006.793-.012,1.577a3.9,3.9,0,0,0,.168,1.514,2.836,2.836,0,0,0,2.137,1.877c.974.1,1.986.04,2.956.068l11.036.085,9.6.073a2.887,2.887,0,0,0,2.776-2.608c.038-.663.02-1.327.032-1.964a3.737,3.737,0,0,1,.322-1.839,2.924,2.924,0,0,1,2.82-1.663l3.013.026,4.724.043,3.894.048-3.894-.006-4.724-.023-3.014-.016a2.847,2.847,0,0,0-2.746,1.626,3.65,3.65,0,0,0-.309,1.8c-.011.642.009,1.293-.028,1.974a2.982,2.982,0,0,1-2.865,2.7l-9.6-.056-11.036-.069c-.98-.027-1.958.035-2.98-.066a2.976,2.976,0,0,1-2.244-1.965,4.052,4.052,0,0,1-.178-1.56q.006-.785.01-1.578a2.963,2.963,0,0,0-1.422-2.632,2.809,2.809,0,0,0-1.528-.381l-1.655-.011-3.367-.022-6.956-.045a35.208,35.208,0,0,0-3.572.063,9.209,9.209,0,0,0-7.8,6.89,15.459,15.459,0,0,0-.3,3.813q-.017,1.944-.034,3.921-.035,3.953-.069,8.028-.072,8.15-.146,16.759c-.1,11.469-.207,23.508-.317,35.989q-.082,9.361-.169,19.037-.043,4.835-.087,9.737a9.943,9.943,0,0,0,.834,4.75,9.163,9.163,0,0,0,7.654,5.327c1.627.076,3.278.041,4.908.067l9.735.068,19.032.135,18.37.131,8.907.064a10.052,10.052,0,0,0,4.245-.714,9.521,9.521,0,0,0,3.428-2.5,9.166,9.166,0,0,0,1.924-3.722,17.107,17.107,0,0,0,.307-4.17q.039-4.191.076-8.266.076-8.148.147-15.8c.1-10.2.186-19.7.268-28.371.169-17.338.306-31.371.4-41.084a9.323,9.323,0,0,0-5.432-8.965,9.921,9.921,0,0,0-2.781-.78Z"/><rect class="j" width="64.361" height="44.69" transform="translate(352.305 332.643) rotate(0.137)"/><circle class="h" cx="9.341" cy="9.341" r="9.341" transform="matrix(0.981, -0.196, 0.196, 0.981, 373.439, 347.657)"/><path class="i" d="M382.134,354.975l.01-4.208,3.639,2.113,3.639,2.113-3.649,2.1-3.65,2.1Z"/><path class="j" d="M359.148,384.035v-.72a.084.084,0,0,1,.126-.072l.623.361.623.362a.084.084,0,0,1,0,.145l-.624.359-.625.358a.083.083,0,0,1-.125-.073Z"/><path class="j" d="M364.994,383.485h-.544a.084.084,0,0,0-.084.084v.96a.084.084,0,0,0,.083.084h.544l.833.837,0-1.4,0-1.4Z"/><path class="j" d="M361.023,384.9h0a.144.144,0,0,1-.143-.144l0-1.443a.143.143,0,0,1,.144-.143h0a.142.142,0,0,1,.143.143l0,1.444A.144.144,0,0,1,361.023,384.9Z"/><path class="j" d="M366.166,383.177v.233l0,1.284v.233a.937.937,0,0,0,0-1.75Z"/><path class="j" d="M366.168,382.51v.365a1.224,1.224,0,0,1-.006,2.354v.365a1.578,1.578,0,0,0,.008-3.084Z"/><path class="j" d="M370.68,383.487l0,1.7h-.24l0-1.485h-.383v-.211Z"/><path class="j" d="M371.044,384.052a.161.161,0,0,1,.165-.164.159.159,0,0,1,.159.165.161.161,0,0,1-.16.166A.162.162,0,0,1,371.044,384.052Zm0,.979a.163.163,0,0,1,.165-.165.159.159,0,0,1,.16.165.161.161,0,0,1-.16.167A.164.164,0,0,1,371.041,385.031Z"/><path class="j" d="M371.6,384.337c0-.553.3-.867.7-.866s.69.317.688.869-.3.866-.692.865S371.6,384.889,371.6,384.337Zm1.141,0c0-.433-.182-.652-.446-.652s-.451.217-.453.65.183.652.449.653S372.737,384.773,372.738,384.339Z"/><path class="j" d="M373.732,383.494l0,1.7h-.24l0-1.485h-.383v-.211Z"/><path class="j" d="M375.37,383.154h.21l-.8,2.28h-.211Z"/><path class="j" d="M377.591,384.719c0,.308-.263.5-.677.5s-.671-.192-.67-.5a.421.421,0,0,1,.3-.409.384.384,0,0,1-.237-.366c0-.284.246-.46.612-.459s.615.178.614.462a.384.384,0,0,1-.24.365A.423.423,0,0,1,377.591,384.719Zm-.242-.008c0-.186-.164-.3-.433-.3s-.429.115-.43.3.16.311.428.311S377.348,384.9,377.349,384.711Zm-.8-.76c0,.167.138.272.37.272s.379-.1.379-.27-.15-.274-.377-.275S376.547,383.782,376.546,383.951Z"/><path class="j" d="M377.81,384.068a.161.161,0,0,1,.165-.164.159.159,0,0,1,.159.165.161.161,0,0,1-.16.167A.164.164,0,0,1,377.81,384.068Zm0,.979a.163.163,0,0,1,.165-.165.166.166,0,0,1,0,.332A.164.164,0,0,1,377.807,385.047Z"/><path class="j" d="M378.363,384.353c0-.552.3-.867.7-.866s.69.317.688.869-.3.866-.692.866S378.362,384.9,378.363,384.353Zm1.141,0c0-.434-.182-.653-.446-.653s-.451.217-.453.65.183.652.449.653S379.5,384.789,379.5,384.356Z"/><path class="j" d="M379.978,384.357c0-.553.3-.867.7-.866s.689.317.688.869-.3.866-.692.865S379.977,384.909,379.978,384.357Zm1.141,0c0-.434-.183-.653-.447-.653s-.451.217-.452.65.183.652.449.653S381.118,384.793,381.119,384.36Z"/><path class="j" d="M352.964,384.895h0a.286.286,0,0,1-.285-.286l0-1.493a.284.284,0,0,1,.286-.285h0a.284.284,0,0,1,.285.286l0,1.493A.287.287,0,0,1,352.964,384.895Z"/><path class="j" d="M354.26,384.9h0a.285.285,0,0,1-.285-.286l0-1.493a.284.284,0,0,1,.286-.285h0a.284.284,0,0,1,.285.286l0,1.493A.286.286,0,0,1,354.26,384.9Z"/><path class="b" d="M416.244,381.46l-63.445-.152a.611.611,0,0,1-.609-.611h0a.611.611,0,0,1,.612-.609l63.445.152a.61.61,0,0,1,.609.611h0A.611.611,0,0,1,416.244,381.46Z"/><path class="i" d="M376.116,381.364l-23.317-.056a.611.611,0,0,1-.609-.611h0a.611.611,0,0,1,.612-.609l23.317.056a.529.529,0,0,1,.529.531v.16A.531.531,0,0,1,376.116,381.364Z"/><path class="i" d="M377.265,380.757a1.165,1.165,0,1,1-1.162-1.168A1.165,1.165,0,0,1,377.265,380.757Z"/><path class="j" d="M416.353,392.7c0,.144-14.179.227-31.664.185s-31.667-.193-31.667-.336,14.176-.227,31.668-.185S416.353,392.56,416.353,392.7Z"/><path class="j" d="M416.338,398.964c0,.144-14.179.227-31.664.185s-31.667-.193-31.667-.336,14.176-.227,31.668-.185S416.338,398.82,416.338,398.964Z"/><path class="j" d="M416.323,405.224c0,.144-14.179.227-31.664.185s-31.667-.193-31.667-.336,14.176-.227,31.668-.185S416.323,405.08,416.323,405.224Z"/><path class="l" d="M415.768,132.558l-11.834-.054a2.934,2.934,0,0,0-2.885,2.982l-.01,2.14a2.935,2.935,0,0,1-2.886,2.983l-23.066-.107a2.938,2.938,0,0,1-2.861-3.009l.01-2.14a2.938,2.938,0,0,0-2.861-3.009l-4.162-.019-10.357-.048a9.3,9.3,0,0,0-9.354,9.246l-.631,148.934a9.3,9.3,0,0,0,9.268,9.325l60.912.28a9.3,9.3,0,0,0,9.353-9.245l.631-148.935A9.3,9.3,0,0,0,415.768,132.558Z"/><path class="j" d="M415.768,132.558l.318.012a6.864,6.864,0,0,1,.941.078,8.758,8.758,0,0,1,3.481,1.215,9.343,9.343,0,0,1,3.878,4.5,9.562,9.562,0,0,1,.684,3.772q-.006,2.058-.014,4.381c-.045,12.39-.109,30.3-.189,52.433s-.192,48.5-.307,77.765q-.022,5.488-.046,11.11c-.056,1.858.166,3.785-.409,5.642a9.27,9.27,0,0,1-3.206,4.692,9.32,9.32,0,0,1-5.386,1.986c-1.943.038-3.882,0-5.838,0l-11.835-.053-24.29-.11-12.423-.057-6.274-.029a9.843,9.843,0,0,1-6.035-1.679,9.5,9.5,0,0,1-3.67-5.077,10.2,10.2,0,0,1-.379-3.137q.006-1.57.013-3.134.027-6.255.053-12.427.054-12.339.105-24.3c.069-15.928.137-31.293.2-45.93s.128-28.544.186-41.561q.045-9.762.086-18.835a18.736,18.736,0,0,1,.29-4.481,9.253,9.253,0,0,1,2.018-3.893,9.669,9.669,0,0,1,3.479-2.518,10.161,10.161,0,0,1,4.136-.715l8.1.04,3.9.021,1.91.009a2.922,2.922,0,0,1,1.8.557,3.057,3.057,0,0,1,1.092,1.514,5.5,5.5,0,0,1,.157,1.833,17.112,17.112,0,0,0,.031,1.79,2.952,2.952,0,0,0,.73,1.549,2.8,2.8,0,0,0,1.449.856,10.687,10.687,0,0,0,1.7.072l3.355.018,12.254.065,5.4.029c.428-.006.859.024,1.267-.015a2.743,2.743,0,0,0,1.141-.406,2.951,2.951,0,0,0,1.3-1.882,17.132,17.132,0,0,0,.078-2.243,3.663,3.663,0,0,1,.42-2.07,2.911,2.911,0,0,1,1.5-1.286,4.829,4.829,0,0,1,1.845-.181l6.028.038,4.97.044-4.97,0-6.028-.018a4.779,4.779,0,0,0-1.821.181,2.845,2.845,0,0,0-1.459,1.26,3.59,3.59,0,0,0-.406,2.034,17,17,0,0,1-.075,2.26,3.035,3.035,0,0,1-1.337,1.938,2.83,2.83,0,0,1-1.176.42c-.427.042-.846.011-1.277.018l-5.4-.02-12.254-.048-3.354-.013a10.609,10.609,0,0,1-1.728-.073,2.925,2.925,0,0,1-1.514-.892,3.075,3.075,0,0,1-.763-1.613,17.1,17.1,0,0,1-.035-1.81,5.4,5.4,0,0,0-.152-1.792,2.926,2.926,0,0,0-1.046-1.448c-1.007-.788-2.382-.456-3.637-.537l-3.9-.016-8.1-.034a10.008,10.008,0,0,0-4.078.707,9.5,9.5,0,0,0-3.42,2.48,9.089,9.089,0,0,0-1.982,3.83,18.6,18.6,0,0,0-.282,4.444q-.036,9.063-.074,18.835c-.052,13.017-.108,26.925-.167,41.561s-.123,30-.188,45.93q-.05,11.948-.1,24.3-.025,6.17-.052,12.427-.006,1.564-.013,3.133a10,10,0,0,0,.371,3.078,9.291,9.291,0,0,0,3.589,4.965,9.638,9.638,0,0,0,5.917,1.642l6.274.029,12.423.057,24.29.114,11.835.055c1.952,0,3.9.042,5.829.005A9.122,9.122,0,0,0,420.776,298a9.047,9.047,0,0,0,3.14-4.592c.563-1.8.347-3.718.4-5.586q.024-5.621.049-11.11c.132-29.267.251-55.625.352-77.765s.2-40.042.255-52.433c-.068-3.072.35-5.908-.646-8.129a9.316,9.316,0,0,0-3.842-4.484,8.817,8.817,0,0,0-3.463-1.23,7.4,7.4,0,0,0-.938-.088Z"/><path class="j" d="M414.621,154.138c0,.146-12.865.264-28.73.264s-28.733-.118-28.733-.264,12.861-.263,28.733-.263S414.621,153.993,414.621,154.138Z"/><rect class="k" width="52.219" height="36.259" transform="translate(359.831 250.03)"/><path class="l" d="M307.2,168.983l-17.727-.01a4.4,4.4,0,0,0-4.3,4.5l0,3.216a4.4,4.4,0,0,1-4.305,4.5l-34.555-.02a4.408,4.408,0,0,1-4.3-4.5v-3.215a4.408,4.408,0,0,0-4.3-4.5l-6.235,0-15.516-.009a13.95,13.95,0,0,0-13.957,13.947l-.044,223.744a13.95,13.95,0,0,0,13.941,13.952l91.252.053a13.949,13.949,0,0,0,13.957-13.946l.044-223.744A13.95,13.95,0,0,0,307.2,168.983Z"/><path class="j" d="M307.2,168.983s.161,0,.478.014a10.334,10.334,0,0,1,1.414.11,13.117,13.117,0,0,1,5.233,1.807,13.365,13.365,0,0,1,3.183,2.579,13.947,13.947,0,0,1,2.656,4.164,14.443,14.443,0,0,1,1.045,5.664q0,3.089.007,6.575c.012,18.588.028,45.478.048,78.7s.012,72.795.019,116.728v20.906a14.911,14.911,0,0,1-.534,4.255,14.12,14.12,0,0,1-1.782,3.932,15.092,15.092,0,0,1-2.906,3.224A14.115,14.115,0,0,1,308,420.772c-2.926.086-5.83.021-8.767.039l-17.766-.008-36.459-.018-18.648-.01-9.418-.005a14.747,14.747,0,0,1-9.085-2.509,14.278,14.278,0,0,1-5.53-7.638,15.361,15.361,0,0,1-.583-4.719q0-2.355,0-4.7,0-9.391.005-18.653,0-18.522.01-36.47c.009-23.909.017-46.972.025-68.942s.021-42.846.03-62.385q.009-14.654.017-28.272,0-1.7,0-3.383c.008-.562.049-1.131.079-1.692.1-.555.141-1.12.286-1.663a14.259,14.259,0,0,1,2.934-5.911,14.155,14.155,0,0,1,11.374-5.04l12.16.014,5.85.007,2.866,0a4.462,4.462,0,0,1,2.746.767,4.612,4.612,0,0,1,1.706,2.241,7.462,7.462,0,0,1,.283,2.756q0,.681,0,1.357a10.055,10.055,0,0,0,.044,1.33A4.407,4.407,0,0,0,243.2,179.6a4.112,4.112,0,0,0,2.132,1.323,4.7,4.7,0,0,0,1.257.124l1.285,0,5.035.007,18.394.027,8.109.013c.64-.011,1.292.03,1.9-.024a4.091,4.091,0,0,0,1.708-.6,4.42,4.42,0,0,0,1.955-2.811,7.745,7.745,0,0,0,.109-1.693q0-.847,0-1.669a9.491,9.491,0,0,1,.073-1.627,4.739,4.739,0,0,1,.526-1.494,4.4,4.4,0,0,1,2.228-1.969,6.983,6.983,0,0,1,2.77-.3l9.048.024,5.565.023c1.253.007,1.9.021,1.9.021s-.642.013-1.9.019l-5.565.016-9.048.014a6.892,6.892,0,0,0-2.724.3,4.273,4.273,0,0,0-2.155,1.917,4.587,4.587,0,0,0-.507,1.451,9.418,9.418,0,0,0-.066,1.6v1.669a7.844,7.844,0,0,1-.108,1.726,4.577,4.577,0,0,1-2.019,2.915,4.262,4.262,0,0,1-1.775.629c-.646.057-1.27.016-1.919.029l-8.109,0-18.394,0h-6.32a4.974,4.974,0,0,1-1.313-.128,4.346,4.346,0,0,1-2.254-1.395,4.644,4.644,0,0,1-1.1-2.458,10.214,10.214,0,0,1-.047-1.361v-1.358a7.254,7.254,0,0,0-.272-2.671,4.357,4.357,0,0,0-1.617-2.118,4.2,4.2,0,0,0-2.6-.72H216.508a13.875,13.875,0,0,0-11.151,4.949,13.973,13.973,0,0,0-2.867,5.789c-.141.531-.181,1.084-.278,1.628-.028.552-.068,1.1-.075,1.661q0,1.683,0,3.383,0,13.6.005,28.272c0,19.539,0,40.416.006,62.385s0,45.033,0,68.942q0,17.932,0,36.47,0,9.26,0,18.653v4.7a14.952,14.952,0,0,0,.566,4.608,13.882,13.882,0,0,0,5.376,7.424,14.336,14.336,0,0,0,8.861,2.439l9.418.006,18.648.012,36.459.024,17.766.013c2.927-.017,5.865.047,8.744-.037a13.738,13.738,0,0,0,7.841-3.04,14.758,14.758,0,0,0,2.83-3.138,13.747,13.747,0,0,0,1.735-3.826,14.555,14.555,0,0,0,.522-4.155q0-2.121,0-4.23,0-8.437.007-16.676c.024-43.933.046-83.5.065-116.728s.06-60.116.078-78.7q.006-3.484.01-6.575a14.311,14.311,0,0,0-1.018-5.619,13.866,13.866,0,0,0-2.62-4.143,13.374,13.374,0,0,0-3.151-2.577,13.213,13.213,0,0,0-5.2-1.835,11.229,11.229,0,0,0-1.41-.13C307.356,169,307.2,168.983,307.2,168.983Z"/><path class="j" d="M310.033,193.07c0,.06-2.3.127-5.148.151s-5.15-.006-5.151-.066,2.3-.128,5.149-.151S310.033,193.01,310.033,193.07Z"/><path class="j" d="M310.055,195.705c0,.06-2.3.127-5.148.151s-5.151-.006-5.151-.066,2.3-.128,5.149-.151S310.054,195.645,310.055,195.705Z"/><path class="j" d="M310.077,198.34c0,.06-2.3.127-5.149.151s-5.15-.006-5.15-.066,2.3-.128,5.149-.151S310.076,198.28,310.077,198.34Z"/><path class="j" d="M212.044,200.029a1.584,1.584,0,0,1,.214-.014l.6-.02,2.2-.052-.061.061c-.008-.487-.016-1.02-.026-1.594,0-.3-.025-.576,0-.918a.843.843,0,0,1,.738-.678c.354-.007.666-.023,1.05,0a.852.852,0,0,1,.721.849l.027,2.326-.1-.1,2.774-.028-.106.107c-.01-1.117-.02-2.272-.03-3.456l-.008-.88a.9.9,0,0,0-.39-.656l-1.213-1.2-1.17-1.155-.567-.56c-.194-.187-.347-.381-.573-.428a.747.747,0,0,0-.637.122c-.168.142-.347.343-.516.507l-.995,1.005c-.627.65-1.279,1.244-1.753,1.806a1.957,1.957,0,0,0-.139,1.035q0,.516,0,.977-.006.9-.01,1.575c-.005.4-.008.735-.011,1.007a3.554,3.554,0,0,1-.014.363,2.749,2.749,0,0,1-.019-.334L212,198.7q-.015-.681-.035-1.587-.009-.471-.019-1c0-.177,0-.359-.008-.545a1.146,1.146,0,0,1,.153-.581c.513-.629,1.125-1.185,1.756-1.855l.988-1.012c.178-.174.323-.348.535-.53a.94.94,0,0,1,.8-.158,1.5,1.5,0,0,1,.666.476l.569.557q.576.565,1.174,1.151l1.215,1.193a2.324,2.324,0,0,1,.309.336.9.9,0,0,1,.146.467c0,.293,0,.588.008.885.009,1.184.018,2.339.026,3.457v.106h-.106l-2.775.018h-.1v-.1c0-.805-.008-1.582-.012-2.326a.669.669,0,0,0-.56-.673c-.319-.017-.7-.006-1.006,0a.682.682,0,0,0-.6.539c-.026.279-.006.6-.012.887,0,.574,0,1.107,0,1.594v.063h-.061l-2.236-.015-.582-.01A1.174,1.174,0,0,1,212.044,200.029Z"/><rect class="n" width="21.291" height="21.291" transform="translate(217.737 342.815)"/><path class="i" d="M279.986,345.105c0,.1-7.119.181-15.9.181s-15.9-.08-15.9-.181,7.118-.181,15.9-.181S279.986,345.006,279.986,345.105Z"/><path class="j" d="M305.343,351.632c0,.1-12.8.181-28.577.181s-28.58-.081-28.58-.181,12.793-.181,28.58-.181S305.343,351.532,305.343,351.632Z"/><path class="j" d="M304.671,356.293c0,.1-12.646.181-28.241.181s-28.244-.081-28.244-.181,12.643-.181,28.244-.181S304.671,356.193,304.671,356.293Z"/><path class="j" d="M281.536,360.739c0,.1-7.466.181-16.674.181s-16.676-.081-16.676-.181,7.465-.181,16.676-.181S281.536,360.639,281.536,360.739Z"/><rect class="n" width="21.291" height="21.291" transform="translate(217.737 377.467)"/><path class="i" d="M279.986,379.758c0,.1-7.119.181-15.9.181s-15.9-.081-15.9-.181,7.118-.181,15.9-.181S279.986,379.658,279.986,379.758Z"/><path class="j" d="M305.343,386.284c0,.1-12.8.181-28.577.181s-28.58-.081-28.58-.181,12.793-.181,28.58-.181S305.343,386.184,305.343,386.284Z"/><path class="j" d="M304.671,390.945c0,.1-12.646.181-28.241.181s-28.244-.081-28.244-.181,12.643-.181,28.244-.181S304.671,390.845,304.671,390.945Z"/><path class="j" d="M281.536,395.392c0,.1-7.466.181-16.674.181s-16.676-.081-16.676-.181,7.465-.181,16.676-.181S281.536,395.292,281.536,395.392Z"/><rect class="k" width="49.293" height="65.582" transform="matrix(0.006, -1, 1, 0.006, 229.433, 279.506)"/><path class="j" d="M228.584,279.506l23.076-30.512,14.082,19.248,9.681-10.194,18.742,21.823Z"/><path class="j" d="M271.894,245.353a5.164,5.164,0,1,1-5.135-5.192A5.164,5.164,0,0,1,271.894,245.353Z"/><path class="j" d="M304.049,289.24c0,.144-19.046.26-42.535.26s-42.539-.116-42.539-.26,19.042-.261,42.539-.261S304.049,289.1,304.049,289.24Z"/><path class="j" d="M304.049,294.777c0,.144-19.046.261-42.535.261s-42.539-.117-42.539-.261,19.042-.26,42.539-.26S304.049,294.633,304.049,294.777Z"/><path class="i" d="M275.381,321.32H247.643a7.27,7.27,0,0,1-7.27-7.27h0a7.27,7.27,0,0,1,7.27-7.27h27.738a7.27,7.27,0,0,1,7.27,7.27h0A7.27,7.27,0,0,1,275.381,321.32Z"/><path class="b" d="M319.942,328.546c0,.144-26.224.26-58.565.26s-58.57-.116-58.57-.26,26.218-.261,58.57-.261S319.942,328.4,319.942,328.546Z"/><path class="i" d="M285.647,218.211c0,.144-10.806.261-24.134.261s-24.136-.117-24.136-.261,10.8-.26,24.136-.26S285.647,218.068,285.647,218.211Z"/><path class="i" d="M290.478,314.05a1.581,1.581,0,1,1-1.581-1.581A1.581,1.581,0,0,1,290.478,314.05Z"/><path class="i" d="M354.471,209.809a2.153,2.153,0,0,1-.386.025l-1.136.025-4.394.046-16.355.079.175-.174c-.009,15.322-.023,37.676-.039,62.529-.042,15.244-.082,29.546-.116,41.712v.226h-.226l-31.232-.093L292,314.12l-2.31-.034-.592-.018a.1.1,0,1,1,0-.036l.592-.018,2.31-.034,8.762-.063,31.232-.093-.226.226c.014-12.166.031-26.468.049-41.712.083-24.853.158-47.207.209-62.529v-.176h.175l16.355.08,4.394.046,1.136.024A2.423,2.423,0,0,1,354.471,209.809Z"/><circle class="h" cx="7.579" cy="7.579" r="7.579" transform="translate(378.361 260.513)"/><path class="i" d="M384.075,268.091v-3.414l2.957,1.707,2.957,1.707-2.957,1.707-2.957,1.707Z"/><rect class="k" width="38.914" height="51.774" transform="translate(359.064 201.554) rotate(-89.681)"/><path class="j" d="M358.394,201.553l18.218-24.088,11.117,15.2,7.643-8.048,14.8,17.228Z"/><path class="j" d="M392.585,174.592a4.077,4.077,0,1,1-4.054-4.1A4.077,4.077,0,0,1,392.585,174.592Z"/><rect class="k" width="40.079" height="2.681" transform="translate(365.104 209.275)"/><path class="j" d="M413.876,219.653c0,.145-12.865.263-28.731.263s-28.733-.118-28.733-.263,12.861-.264,28.733-.264S413.876,219.507,413.876,219.653Z"/><path class="j" d="M413.876,226.992c0,.146-12.865.263-28.731.263s-28.733-.117-28.733-.263,12.861-.263,28.733-.263S413.876,226.846,413.876,226.992Z"/><path class="j" d="M413.876,234.331c0,.146-12.865.263-28.731.263s-28.733-.117-28.733-.263,12.861-.263,28.733-.263S413.876,234.185,413.876,234.331Z"/><path class="j" d="M413.876,241.67c0,.146-12.865.264-28.731.264s-28.733-.118-28.733-.264,12.861-.263,28.733-.263S413.876,241.525,413.876,241.67Z"/><path class="i" d="M356.052,209.809a1.581,1.581,0,1,1-1.581-1.581A1.581,1.581,0,0,1,356.052,209.809Z"/><path class="i" d="M387.466,291.221a1.537,1.537,0,1,1-1.526-1.351A1.446,1.446,0,0,1,387.466,291.221Z"/><path class="i" d="M387.466,326.876a1.537,1.537,0,1,1-1.526-1.351A1.446,1.446,0,0,1,387.466,326.876Z"/><path class="i" d="M385.94,326.876c-.144,0-.26-7.982-.26-17.827s.116-17.828.26-17.828.26,7.981.26,17.828S386.084,326.876,385.94,326.876Z"/><path class="i" d="M261.375,205.686a1.15,1.15,0,0,1-.023-.27c-.006-.2-.013-.466-.022-.8-.01-.731-.024-1.762-.042-3.082-.018-2.717-.043-6.621-.075-11.5-.023-9.828-.055-23.574-.091-39.376l.252.253-17.448.007-51.252-.076-15.532-.083-4.222-.049-1.1-.025a1.987,1.987,0,0,1-.374-.027,1.987,1.987,0,0,1,.374-.027l1.1-.026,4.222-.048,15.532-.083,51.252-.076,17.448.007h.254v.253c-.036,15.8-.068,29.548-.091,39.376-.031,4.878-.057,8.781-.074,11.5-.018,1.32-.033,2.351-.043,3.082-.009.33-.016.593-.022.8A1.277,1.277,0,0,1,261.375,205.686Z"/><path class="i" d="M262.956,205.686a1.581,1.581,0,1,1-1.581-1.581A1.581,1.581,0,0,1,262.956,205.686Z"/><path class="i" d="M173.029,150.664a1.582,1.582,0,1,1-1.581-1.581A1.581,1.581,0,0,1,173.029,150.664Z"/><path class="j" d="M475.082,466.774c0,.144-100.781.261-225.071.261-124.334,0-225.093-.117-225.093-.261s100.759-.26,225.093-.26C374.3,466.514,475.082,466.631,475.082,466.774Z"/></g></svg>